<?xml version="1.0" encoding="UTF-8"?>
<svg version="1.1" xmlns="http://www.w3.org/2000/svg" width="1024" height="1024">
<path d="M0 0 C337.92 0 675.84 0 1024 0 C1024 337.92 1024 675.84 1024 1024 C686.08 1024 348.16 1024 0 1024 C0 686.08 0 348.16 0 0 Z " fill="#13304D" transform="translate(0,0)"/>
<path d="M0 0 C0.81186768 0.65524658 0.81186768 0.65524658 1.64013672 1.32373047 C16.78240404 13.6118633 31.12331328 27.51748809 43 43 C43.94306607 44.15784725 44.88997555 45.31257023 45.83984375 46.46484375 C52.81500551 54.95871015 59.1331352 63.70771476 65 73 C65.36657715 73.57621094 65.7331543 74.15242187 66.11083984 74.74609375 C76.55904036 91.28321865 85.66758978 108.86546388 93 127 C93.49757813 128.2065625 93.99515625 129.413125 94.5078125 130.65625 C104.13568767 154.6929765 110.50165312 181.22900886 113 207 C113.08467529 207.82129395 113.16935059 208.64258789 113.2565918 209.48876953 C115.92056547 238.69399214 115.59088485 269.19412789 110 298 C109.80164551 299.11358887 109.60329102 300.22717773 109.39892578 301.37451172 C106.79365436 315.95118151 102.97700901 329.96787254 98.3125 344 C97.95247391 345.08782776 97.95247391 345.08782776 97.58517456 346.19763184 C96.8969586 348.2606038 96.19591342 350.31861614 95.48828125 352.375 C94.87786987 354.15003906 94.87786987 354.15003906 94.25512695 355.9609375 C93.10084016 358.75583383 91.84803066 360.64691144 90 363 C89.25355225 362.25133163 88.50710449 361.50266327 87.73803711 360.73130798 C80.67943191 353.65237038 73.61814155 346.57612093 66.55426025 339.50244808 C62.92334325 335.86632782 59.29335599 332.22928968 55.66552734 328.59008789 C52.15994488 325.07358526 48.65187625 321.55958017 45.14212036 318.04724312 C43.80812004 316.71140494 42.47499543 315.37469162 41.14279175 314.03706169 C32.24953779 305.09343355 32.24953779 305.09343355 22.88150024 296.65565491 C18.85756556 293.11473206 15.13244271 289.25313819 11.35546875 285.453125 C10.01806389 284.11359772 10.01806389 284.11359772 8.65364075 282.74700928 C6.30710948 280.39586172 3.96276773 278.04257537 1.61950684 275.68817139 C-0.7694022 273.2889785 -3.16118906 270.89265826 -5.55273438 268.49609375 C-9.74946632 264.28957008 -13.94399415 260.08086308 -18.1365509 255.87017822 C-19.75590431 254.24497715 -21.37707767 252.62163607 -23 251 C-26.59721356 252.4954708 -28.63097221 254.52706308 -31.1875 257.4375 C-31.97125 258.32953125 -32.755 259.2215625 -33.5625 260.140625 C-36.73504506 263.8622644 -39.83682456 267.63684121 -42.9140625 271.4375 C-45.55141268 274.67739086 -48.26408759 277.84317799 -51 281 C-55.04408617 279.16736348 -58.6409098 276.6576009 -62.3125 274.1875 C-63.07304688 273.67832031 -63.83359375 273.16914063 -64.6171875 272.64453125 C-71.23865755 268.20292692 -77.83753354 263.72784293 -84.43701172 259.25366211 C-87.1445143 257.41812587 -89.8532137 255.58437764 -92.56298828 253.75219727 C-93.89230134 252.85309939 -95.22156628 251.95393038 -96.55078125 251.0546875 C-97.19623901 250.61803268 -97.84169678 250.18137787 -98.50671387 249.73149109 C-102.30531082 247.15829018 -106.08649305 244.56182451 -109.85546875 241.9453125 C-110.68949219 241.37232422 -111.52351563 240.79933594 -112.3828125 240.20898438 C-113.87033851 239.18662539 -115.35136409 238.15471237 -116.82421875 237.11132812 C-120.14003337 234.6538814 -120.14003337 234.6538814 -124.06591797 234.265625 C-126.88477695 235.33595166 -128.39271368 237.18491691 -130.4375 239.375 C-133.42027365 242.56008352 -136.16269839 244.90200441 -140 247 C-145.30872245 241.31420941 -150.56664182 235.63316516 -155.4375 229.5625 C-159.28110057 224.78378372 -163.36960164 220.30842313 -167.55834961 215.83618164 C-170.67553945 212.48900673 -173.63573798 209.06994977 -176.5 205.5 C-180.83412829 200.10204023 -185.49206438 195.06222304 -190.2109375 190.00390625 C-192.98252208 187.03117322 -195.6724591 183.99515837 -198.33203125 180.921875 C-201.51895462 177.24982278 -204.76511988 173.62978757 -208 170 C-217.12150219 177.73344751 -225.91311716 185.82377923 -234.69140625 193.94140625 C-248.82190064 207.00827037 -248.82190064 207.00827037 -255.80078125 213.05078125 C-259.3421829 216.18960793 -262.79966874 219.41977428 -266.25756836 222.65014648 C-267.31093252 223.62994133 -268.36970723 224.6039549 -269.43408203 225.57177734 C-270.49104547 226.53579919 -271.53355547 227.51587592 -272.56201172 228.51025391 C-276.34642577 231.99789848 -276.34642577 231.99789848 -279.4296875 232.0078125 C-280.64011719 231.57082031 -280.64011719 231.57082031 -281.875 231.125 C-282.8134375 230.81304687 -283.751875 230.50109375 -284.71875 230.1796875 C-285.8015625 229.79039062 -286.884375 229.40109375 -288 229 C-290.07498038 228.29846874 -292.15416515 227.61332507 -294.23876953 226.94091797 C-295.64014406 226.48767341 -297.03724861 226.02095989 -298.42919922 225.53955078 C-302.30055909 224.26381628 -305.15489355 223.42370422 -309 225 C-311.14505223 227.0249091 -311.14505223 227.0249091 -313.0625 229.6875 C-313.83722656 230.68136719 -314.61195313 231.67523438 -315.41015625 232.69921875 C-316.03301514 233.50238525 -316.03301514 233.50238525 -316.66845703 234.32177734 C-319.02354237 237.29003122 -321.51839222 240.13751255 -324 243 C-328.32095973 248.01171617 -332.55102029 253.08543366 -336.72265625 258.22265625 C-339.28204054 261.34396367 -341.88593791 264.4245003 -344.5 267.5 C-347.87283589 271.46903543 -351.21176645 275.46017021 -354.5 279.5 C-357.7882374 283.53983452 -361.12731461 287.53083277 -364.5 291.5 C-367.90954504 295.51421669 -371.29097508 299.54749914 -374.625 303.625 C-375.65448006 304.86534752 -375.65448006 304.86534752 -376.70475769 306.13075256 C-379.01028115 308.94157229 -379.01028115 308.94157229 -380.94184875 311.8266449 C-384.72616523 317.1052442 -387.60894037 320.51372366 -394.06713867 322.04321289 C-396.34377324 322.40069683 -398.62862984 322.70848379 -400.91796875 322.97265625 C-402.1339827 323.15211288 -403.34999664 323.33156952 -404.6028595 323.51646423 C-408.45966271 324.07639742 -412.32143133 324.57106899 -416.1875 325.0625 C-420.0611547 325.60054103 -423.93277106 326.15166433 -427.80427551 326.7049408 C-430.20551617 327.04310566 -432.60841345 327.3697621 -435.01298523 327.68336487 C-445.72473559 329.05324565 -445.72473559 329.05324565 -454.5625 334.875 C-455.41714844 335.67421875 -456.27179688 336.4734375 -457.15234375 337.296875 C-458.09207031 338.18890625 -459.03179687 339.0809375 -460 340 C-462.20248743 342.04800975 -464.41409819 344.08608203 -466.625 346.125 C-467.18517822 346.64368652 -467.74535645 347.16237305 -468.32250977 347.69677734 C-471.7770438 350.89177517 -475.27997311 354.01684122 -478.84375 357.08984375 C-481.19470083 359.17247954 -483.48652223 361.31114082 -485.78051758 363.45605469 C-490.98236654 368.31593914 -496.17153281 372.88578787 -502 377 C-520.12764994 341.95053049 -529.95574671 298.42712097 -530.23828125 259.046875 C-530.2480751 257.92090912 -530.25786896 256.79494324 -530.26795959 255.63485718 C-530.59437916 208.39847253 -530.59437916 208.39847253 -526 186 C-525.78569336 184.93942383 -525.57138672 183.87884766 -525.35058594 182.78613281 C-523.82037801 175.45138069 -522.00363969 168.21879504 -520 161 C-519.70609375 159.9382959 -519.4121875 158.8765918 -519.109375 157.78271484 C-512.95386277 135.94173157 -504.67256415 115.0279606 -494 95 C-493.63471191 94.30277832 -493.26942383 93.60555664 -492.89306641 92.88720703 C-473.3160792 55.66195905 -444.46177303 20.59399071 -411 -5 C-410.44538086 -5.43248047 -409.89076172 -5.86496094 -409.31933594 -6.31054688 C-334.87817421 -64.3197472 -237.14763818 -86.657203 0 0 Z " fill="#F02020" transform="translate(721,195)"/>
<path d="M0 0 C1.30585556 0.00081573 1.30585556 0.00081573 2.63809204 0.00164795 C25.48144456 0.06687963 46.93428842 3.2563764 68.6875 10.375 C69.34492187 10.58237793 70.00234375 10.78975586 70.6796875 11.00341797 C80.5455689 14.1281341 89.57252665 18.55176456 98.6875 23.375 C99.41517578 23.75285645 100.14285156 24.13071289 100.89257812 24.52001953 C112.3336085 30.48158162 122.64372096 37.28410409 132.6875 45.375 C133.26870605 45.8405127 133.84991211 46.30602539 134.44873047 46.78564453 C146.49324561 56.50341757 157.14586721 67.17727439 166.6875 79.375 C167.47640625 80.33535156 168.2653125 81.29570312 169.078125 82.28515625 C188.2311608 106.10599166 200.62733518 135.53710517 206.6875 165.375 C206.83703125 166.09397461 206.9865625 166.81294922 207.140625 167.55371094 C209.54153658 179.64623328 209.97546806 191.65064517 210 203.9375 C210.00358521 204.66370544 210.00717041 205.38991089 210.01086426 206.13812256 C210.0345566 215.05072645 209.51253222 223.61547214 207.6875 232.375 C201.27792454 227.10490462 195.50718458 221.2780877 189.6875 215.375 C188.6885678 214.37393333 187.68916805 213.37332916 186.6875 212.375 C183.09028644 213.8704708 181.05652779 215.90206308 178.5 218.8125 C177.71625 219.70453125 176.9325 220.5965625 176.125 221.515625 C172.95245494 225.2372644 169.85067544 229.01184121 166.7734375 232.8125 C164.13608732 236.05239086 161.42341241 239.21817799 158.6875 242.375 C154.64341383 240.54236348 151.0465902 238.0326009 147.375 235.5625 C146.23417969 234.79873047 146.23417969 234.79873047 145.0703125 234.01953125 C138.44884245 229.57792692 131.84996646 225.10284293 125.25048828 220.62866211 C122.5429857 218.79312587 119.8342863 216.95937764 117.12451172 215.12719727 C115.79519866 214.22809939 114.46593372 213.32893038 113.13671875 212.4296875 C112.49126099 211.99303268 111.84580322 211.55637787 111.18078613 211.10649109 C107.38218918 208.53329018 103.60100695 205.93682451 99.83203125 203.3203125 C98.99800781 202.74732422 98.16398437 202.17433594 97.3046875 201.58398438 C95.81716149 200.56162539 94.33613591 199.52971237 92.86328125 198.48632812 C89.54746663 196.0288814 89.54746663 196.0288814 85.62158203 195.640625 C82.80272305 196.71095166 81.29478632 198.55991691 79.25 200.75 C76.26722635 203.93508352 73.52480161 206.27700441 69.6875 208.375 C64.37877755 202.68920941 59.12085818 197.00816516 54.25 190.9375 C50.40639943 186.15878372 46.31789836 181.68342313 42.12915039 177.21118164 C39.01196055 173.86400673 36.05176202 170.44494977 33.1875 166.875 C28.85337171 161.47704023 24.19543562 156.43722304 19.4765625 151.37890625 C16.70497792 148.40617322 14.0150409 145.37015837 11.35546875 142.296875 C8.16854538 138.62482278 4.92238012 135.00478757 1.6875 131.375 C-7.43400219 139.10844751 -16.22561716 147.19877923 -25.00390625 155.31640625 C-39.13440064 168.38327037 -39.13440064 168.38327037 -46.11328125 174.42578125 C-49.6546829 177.56460793 -53.11216874 180.79477428 -56.57006836 184.02514648 C-57.62343252 185.00494133 -58.68220723 185.9789549 -59.74658203 186.94677734 C-60.80354547 187.91079919 -61.84605547 188.89087592 -62.87451172 189.88525391 C-66.65892577 193.37289848 -66.65892577 193.37289848 -69.7421875 193.3828125 C-70.95261719 192.94582031 -70.95261719 192.94582031 -72.1875 192.5 C-73.1259375 192.18804687 -74.064375 191.87609375 -75.03125 191.5546875 C-76.1140625 191.16539062 -77.196875 190.77609375 -78.3125 190.375 C-80.38748038 189.67346874 -82.46666515 188.98832507 -84.55126953 188.31591797 C-85.95264406 187.86267341 -87.34974861 187.39595989 -88.74169922 186.91455078 C-92.61305909 185.63881628 -95.46739355 184.79870422 -99.3125 186.375 C-101.45755223 188.3999091 -101.45755223 188.3999091 -103.375 191.0625 C-104.14972656 192.05636719 -104.92445313 193.05023438 -105.72265625 194.07421875 C-106.13789551 194.60966309 -106.55313477 195.14510742 -106.98095703 195.69677734 C-109.33604237 198.66503122 -111.83089222 201.51251255 -114.3125 204.375 C-118.63345973 209.38671617 -122.86352029 214.46043366 -127.03515625 219.59765625 C-129.59454054 222.71896367 -132.19843791 225.7995003 -134.8125 228.875 C-138.18533589 232.84403543 -141.52426645 236.83517021 -144.8125 240.875 C-148.1007374 244.91483452 -151.43981461 248.90583277 -154.8125 252.875 C-158.22204504 256.88921669 -161.60347508 260.92249914 -164.9375 265 C-165.65808594 265.8765625 -166.37867188 266.753125 -167.12109375 267.65625 C-168.66380096 269.57019691 -170.17413476 271.51046544 -171.66015625 273.46875 C-172.43230469 274.4690625 -173.20445312 275.469375 -174 276.5 C-174.68449219 277.41007812 -175.36898438 278.32015625 -176.07421875 279.2578125 C-180.66762732 283.60271206 -187.33769609 282.49449608 -193.3125 282.375 C-198.32020201 267.93698631 -201.73824561 253.43477396 -204.3125 238.375 C-204.44672363 237.59898437 -204.58094727 236.82296875 -204.71923828 236.0234375 C-209.91406466 204.34303358 -206.45425984 170.65301912 -196.3125 140.375 C-196.07273437 139.65812012 -195.83296875 138.94124023 -195.5859375 138.20263672 C-186.92543247 112.84567728 -173.6273317 89.379457 -155.4140625 69.6640625 C-153.56728817 67.6525202 -151.81262567 65.59497802 -150.0625 63.5 C-112.99534978 21.13754261 -55.25256402 -0.13077843 0 0 Z " fill="#FE8A1D" transform="translate(511.3125,233.625)"/>
<path d="M0 0 C1.52343018 0.27408691 1.52343018 0.27408691 3.07763672 0.55371094 C71.92279175 13.22613029 134.12103085 51.63130247 174.44482422 109.05761719 C204.29197026 152.45455266 221.49307787 204.34657866 221.375 257.125 C221.37418427 258.50229279 221.37418427 258.50229279 221.37335205 259.90740967 C221.20572419 321.79427581 221.20572419 321.79427581 209 334 C208.52691406 333.52167725 208.05382812 333.04335449 207.56640625 332.55053711 C205.38035594 330.3434466 203.19020871 328.14046367 201 325.9375 C200.25621094 325.18533203 199.51242187 324.43316406 198.74609375 323.65820312 C194.69423549 319.58872809 190.5683322 315.68962565 186.22314453 311.93676758 C181.89797795 308.16875237 177.6667166 304.31659244 173.51489258 300.359375 C172.46002352 299.36671073 171.39205419 298.38779296 170.31176758 297.42285156 C161.36647057 289.40955359 161.36647057 289.40955359 160.53466797 283.94042969 C160.81914416 280.57160523 161.40676484 277.32758791 162 274 C162.11952311 271.33149098 162.19493128 268.69889546 162.203125 266.03125 C162.21339722 265.00041794 162.21339722 265.00041794 162.22387695 263.94876099 C162.7149541 206.51845001 142.68422443 157.05050199 103.30273438 115.38183594 C102.25025378 114.2654491 101.20923224 113.13826591 100.171875 112.0078125 C74.18789521 84.58027828 35.75605248 66.6042139 -0.6875 58.75 C-1.38617187 58.59885742 -2.08484375 58.44771484 -2.8046875 58.29199219 C-17.06960305 55.4143248 -31.11858216 54.62485693 -45.625 54.6875 C-46.50329468 54.68932281 -47.38158936 54.69114563 -48.28649902 54.69302368 C-61.72290378 54.7399048 -74.80505118 55.26111503 -88 58 C-89.19302734 58.23348145 -89.19302734 58.23348145 -90.41015625 58.47167969 C-125.38478699 65.50309622 -157.43630035 82.48919582 -184 106 C-184.88300781 106.76054687 -185.76601563 107.52109375 -186.67578125 108.3046875 C-202.91154022 122.49519534 -215.28569187 139.43469022 -226 158 C-226.37253906 158.63518555 -226.74507813 159.27037109 -227.12890625 159.92480469 C-254.16944487 206.347722 -258.1476428 263.34958124 -245.58105469 314.82910156 C-244.29378226 319.63852444 -242.65702013 324.32064657 -240.953125 328.99609375 C-240 332 -240 332 -240 336 C-239.34 336.33 -238.68 336.66 -238 337 C-238.58580338 337.08690094 -239.17160675 337.17380188 -239.77516174 337.26333618 C-245.89587294 338.17615607 -252.01071554 339.12261216 -258.12329102 340.08837891 C-260.40224218 340.44396453 -262.68253237 340.79107959 -264.96411133 341.12939453 C-268.25213859 341.61847514 -271.53407399 342.13827426 -274.81640625 342.6640625 C-275.83021866 342.80808502 -276.84403107 342.95210754 -277.88856506 343.10049438 C-283.80830884 344.0848683 -287.42504138 345.44551811 -291.66661072 349.7696228 C-293 351 -293 351 -295 351 C-303.14830846 324.8649533 -310.50038515 298.58218517 -311 271 C-311.02046387 270.03400879 -311.04092773 269.06801758 -311.06201172 268.07275391 C-312.37324293 196.15009643 -288.18897738 129.06461652 -238 77 C-237.46584473 76.44393066 -236.93168945 75.88786133 -236.38134766 75.31494141 C-229.31470912 67.99629793 -222.04083546 61.25649276 -214 55 C-212.56140625 53.83597656 -212.56140625 53.83597656 -211.09375 52.6484375 C-173.66763447 22.87766378 -126.42549279 3.68625972 -79 -2 C-78.26048096 -2.0942627 -77.52096191 -2.18852539 -76.7590332 -2.28564453 C-51.89186815 -5.02497752 -24.55373314 -4.67567143 0 0 Z " fill="#FE5E20" transform="translate(558,180)"/>
<path d="M0 0 C3.99815676 1.29669949 5.73191945 2.48456911 8 6 C8.81739504 7.90366327 9.56609944 9.83760605 10.26171875 11.7890625 C10.85629883 13.44808594 10.85629883 13.44808594 11.46289062 15.140625 C11.86701172 16.29046875 12.27113281 17.4403125 12.6875 18.625 C13.10322266 19.78257812 13.51894531 20.94015625 13.94726562 22.1328125 C17 30.71455511 17 30.71455511 17 33 C12.96479403 31.41037341 8.98188718 29.71767682 5 28 C5.33 30.64 5.66 33.28 6 36 C0.25 34.125 0.25 34.125 -2 33 C-2.2475 33.78375 -2.495 34.5675 -2.75 35.375 C-4.33931493 39.98401329 -6.16207173 44.48547716 -8 49 C-6.741875 49.37125 -5.48375 49.7425 -4.1875 50.125 C-2.45437189 50.73892939 -0.72545747 51.3648316 1 52 C1.88945312 52.28617187 2.77890625 52.57234375 3.6953125 52.8671875 C13.50259241 56.91862792 16.80149075 65.69880563 20.98828125 74.828125 C21.87815478 76.73843266 22.854642 78.60788579 23.84375 80.46875 C24.2253125 81.3040625 24.606875 82.139375 25 83 C24.67 83.66 24.34 84.32 24 85 C22.58155991 83.43910974 21.16532975 81.8762111 19.75 80.3125 C18.56664062 79.00732422 18.56664062 79.00732422 17.359375 77.67578125 C15.1618887 75.18359894 13.07563507 72.59454384 11 70 C11 74.62 11 79.24 11 84 C12.38832031 84.71285156 13.77664063 85.42570312 15.20703125 86.16015625 C19.98763358 88.6265321 24.74660689 91.13141024 29.49267578 93.66357422 C31.40514122 94.68293506 33.32417892 95.6899753 35.24609375 96.69140625 C43.32454257 101.31666478 49.47579515 108.20181572 55.88671875 114.84375 C59.16803765 118.22240276 62.59918367 121.3359684 66.17211914 124.40136719 C68.70182544 126.61380432 71.0283464 128.96912486 73.375 131.375 C76.38439823 134.60234802 76.38439823 134.60234802 80 137 C80 137.66 80 138.32 80 139 C80.66 139 81.32 139 82 139 C81.67 137.7625 81.34 136.525 81 135.25 C80.20108841 132.25408155 80 130.19892281 80 127 C84.75 128.875 84.75 128.875 87 130 C87.66 127.36 88.32 124.72 89 122 C92.65199315 123.21733105 93.44819435 124.49828116 95.8125 127.5 C97.00166016 128.98886719 97.00166016 128.98886719 98.21484375 130.5078125 C98.65554199 131.06243164 99.09624023 131.61705078 99.55029297 132.18847656 C102.29037658 135.61242745 105.08563149 138.99118211 107.875 142.375 C108.4743335 143.10340088 109.07366699 143.83180176 109.69116211 144.58227539 C113.38439358 149.06410076 117.11188453 153.51425888 120.875 157.9375 C133.30356413 172.56397654 133.30356413 172.56397654 138 180 C134.04 180.33 130.08 180.66 126 181 C126.66 183.31 127.32 185.62 128 188 C113.15 188.495 113.15 188.495 98 189 C101.96 194.445 101.96 194.445 106 200 C106 200.33 106 200.66 106 201 C104.02 201 102.04 201 100 201 C100.53173828 201.60521484 100.53173828 201.60521484 101.07421875 202.22265625 C103.05269162 204.47897761 105.02664487 206.73920035 107 209 C107.72388916 209.82854492 107.72388916 209.82854492 108.46240234 210.67382812 C126.74256536 231.61384804 126.74256536 231.61384804 131 238 C122.42 238.33 113.84 238.66 105 239 C106.505625 240.485 108.01125 241.97 109.5625 243.5 C113.214753 247.152253 116.71628855 250.85660096 120.06640625 254.78515625 C121.62947047 256.57557527 123.21816769 258.32203345 124.83984375 260.05859375 C125.59019897 260.86417725 125.59019897 260.86417725 126.35571289 261.68603516 C127.35242079 262.75305557 128.35279782 263.81666288 129.35717773 264.87646484 C131.57089855 267.25290761 132.95923005 268.87769015 134 272 C122.78 272 111.56 272 100 272 C102.31 274.64 104.62 277.28 107 280 C108.90294786 282.20288269 110.80009324 284.40899437 112.6875 286.625 C113.14705078 287.15867187 113.60660156 287.69234375 114.08007812 288.2421875 C114.53189453 288.77328125 114.98371094 289.304375 115.44921875 289.8515625 C115.84455811 290.31385254 116.23989746 290.77614258 116.6472168 291.25244141 C118.56864975 293.73459573 120.25882492 296.38823737 122 299 C113.42 299 104.84 299 96 299 C98.64 301.64 101.28 304.28 104 307 C107.4375 310.9375 107.4375 310.9375 109.125 312.90234375 C112.57942411 316.76698073 116.29837599 320.37391934 120 324 C116.88560527 326.53184608 113.73602384 328.20504379 110.0625 329.8125 C108.53302734 330.50279297 108.53302734 330.50279297 106.97265625 331.20703125 C101.14207355 332.76236409 95.17811525 328.11256363 90.03515625 325.45703125 C89.16539658 325.01034592 88.2956369 324.56366058 87.39952087 324.10343933 C84.61942599 322.6752308 81.84088845 321.24402491 79.0625 319.8125 C75.42894328 317.94292418 71.79472816 316.07463264 68.16015625 314.20703125 C67.285336 313.75731964 66.41051575 313.30760803 65.50918579 312.8442688 C58.36548139 309.17661238 51.19464252 305.56668484 44 302 C45.33096696 304.83446666 46.66417029 307.66782447 48 310.5 C48.40210693 311.35263428 48.80421387 312.20526855 49.21850586 313.08374023 C52.24613243 319.47526453 55.37146506 325.81099458 58.61132812 332.09765625 C61 336.78707343 61 336.78707343 61 339 C57.21622824 340.87145515 54.21244377 341.43674166 50 341 C44.53738399 338.22832784 39.95255482 333.84482409 35.30761719 329.90966797 C31.53821449 326.79029981 27.58313437 323.93581236 23.625 321.0625 C22.02294088 319.88739551 20.42138082 318.71161034 18.8203125 317.53515625 C18.02399414 316.95137207 17.22767578 316.36758789 16.40722656 315.76611328 C12.43334879 312.85059281 8.46699376 309.92487631 4.5 307 C-0.28342473 303.47420318 -5.06771963 299.94961066 -9.85546875 296.4296875 C-10.65581543 295.84058594 -11.45616211 295.25148438 -12.28076172 294.64453125 C-13.87058938 293.4756257 -15.46203338 292.30891498 -17.05517578 291.14453125 C-20.95055424 288.28905867 -24.79537256 285.39124592 -28.57421875 282.3828125 C-29.29971924 281.81320801 -30.02521973 281.24360352 -30.77270508 280.65673828 C-32.14010799 279.57914031 -33.49621307 278.48699525 -34.83862305 277.37841797 C-36.84769702 275.73899242 -36.84769702 275.73899242 -40 274 C-44.01537251 274.70824209 -47.03183787 277.26292327 -50.3125 279.625 C-51.19550781 280.25664063 -52.07851563 280.88828125 -52.98828125 281.5390625 C-53.65214844 282.02117187 -54.31601562 282.50328125 -55 283 C-57.89874417 281.70735873 -59.76602526 280.43512432 -61.8125 278.015625 C-62.32441895 277.4172583 -62.83633789 276.8188916 -63.36376953 276.20239258 C-63.90372559 275.55810303 -64.44368164 274.91381348 -65 274.25 C-65.56960449 273.58186279 -66.13920898 272.91372559 -66.72607422 272.2253418 C-68.48985597 270.15508042 -70.24523573 268.07790614 -72 266 C-74.03766294 263.60073591 -76.0800784 261.20557917 -78.125 258.8125 C-78.61589111 258.23685303 -79.10678223 257.66120605 -79.61254883 257.06811523 C-83.3340767 252.72418012 -87.18042489 248.51079644 -91.07348633 244.32080078 C-93.95077306 241.20369699 -96.66418749 238.00033373 -99.3125 234.6875 C-104.16554079 228.65398983 -109.46266962 223.07590425 -114.76953125 217.4453125 C-117.7128424 214.31956818 -120.56830219 211.13126839 -123.37109375 207.87890625 C-125.34484552 205.60222855 -127.3579887 203.36343278 -129.375 201.125 C-130.51582031 199.85849609 -130.51582031 199.85849609 -131.6796875 198.56640625 C-133.20165087 196.88302252 -134.72756626 195.20320165 -136.2578125 193.52734375 C-141.03919099 188.27115938 -145.60590703 182.88870003 -150.0546875 177.34765625 C-151.01761719 176.18556641 -151.01761719 176.18556641 -152 175 C-152.49757813 174.37996094 -152.99515625 173.75992188 -153.5078125 173.12109375 C-154.93822372 171.77977454 -154.93822372 171.77977454 -156.84521484 172.20507812 C-159.54264157 173.20018592 -160.93714246 174.56826126 -162.96875 176.59765625 C-164.07283203 177.67563477 -164.07283203 177.67563477 -165.19921875 178.77539062 C-166.73502726 180.30207294 -168.26887896 181.83072626 -169.80078125 183.36132812 C-170.53683594 184.07869141 -171.27289063 184.79605469 -172.03125 185.53515625 C-172.69705078 186.199104 -173.36285156 186.86305176 -174.04882812 187.54711914 C-176 189 -176 189 -180 189 C-181.91306195 187.10501423 -183.5287196 185.28659203 -185.1875 183.1875 C-185.67234863 182.59437012 -186.15719727 182.00124023 -186.65673828 181.39013672 C-188.11548881 179.60200635 -189.55872597 177.80222803 -191 176 C-192.45629177 174.20667352 -193.91447746 172.41488253 -195.375 170.625 C-196.096875 169.738125 -196.81875 168.85125 -197.5625 167.9375 C-200.99271006 163.80365711 -204.51892793 159.75621639 -208.04663086 155.70556641 C-212.17405562 150.96383007 -216.2566111 146.18687973 -220.3034668 141.3762207 C-222.73145557 138.49068609 -225.19233068 135.63996991 -227.6875 132.8125 C-230 130 -230 130 -230 128 C-228.85225098 127.83395264 -227.70450195 127.66790527 -226.52197266 127.49682617 C-222.17159362 126.86692042 -217.8215886 126.23446177 -213.47167969 125.60131836 C-211.60621738 125.33013838 -209.74066067 125.05960682 -207.875 124.78979492 C-205.15858888 124.39682273 -202.44254442 124.00139544 -199.7265625 123.60546875 C-198.82520569 123.47534393 -197.92384888 123.34521912 -196.99517822 123.21115112 C-192.66583878 122.57731962 -188.35504136 121.89965724 -184.05371094 121.09619141 C-175.43636331 119.49153458 -167.73115206 118.61528982 -159 120 C-157.48644028 120.2250395 -155.97275755 120.44925242 -154.45898438 120.67285156 C-148.31102623 121.59718654 -142.17052426 122.56844221 -136.03417969 123.56689453 C-133.39402976 123.99449753 -130.75199759 124.4083069 -128.109375 124.8203125 C-127.31335876 124.95357941 -126.51734253 125.08684631 -125.69720459 125.22415161 C-112.90071114 127.18980971 -100.99431509 122.3729596 -90 116 C-86.69290458 112.98835114 -84.86753665 110.02898071 -83 106 C-77.94242594 96.31414198 -77.94242594 96.31414198 -73.625 94.875 C-72.42875 94.91625 -71.2325 94.9575 -70 95 C-68.59116714 95.00817378 -67.18229105 95.01072938 -65.7734375 95.0078125 C-64.52820313 95.00523437 -63.28296875 95.00265625 -62 95 C-62.29769287 94.0212793 -62.59538574 93.04255859 -62.90209961 92.03417969 C-64.00823438 88.39662247 -65.11307525 84.75867332 -66.2175293 81.12060547 C-66.69536727 79.54725629 -67.17355423 77.97401306 -67.65209961 76.40087891 C-68.3406037 74.1373234 -69.02784439 71.87338759 -69.71484375 69.609375 C-69.92842026 68.90818542 -70.14199677 68.20699585 -70.36204529 67.48455811 C-71.31534195 64.33893097 -72.24998858 61.20100568 -73 58 C-68.59518723 61.59576553 -64.69811341 65.25050208 -61.03515625 69.59765625 C-59.44692115 71.47244432 -57.83211171 73.30043258 -56.18359375 75.12109375 C-55.18453283 76.24707385 -54.18583555 77.37337671 -53.1875 78.5 C-52.70700195 79.02150635 -52.22650391 79.5430127 -51.73144531 80.08032227 C-48.23875162 84.08055963 -46.94288534 87.79583435 -46 93 C-45.63316592 94.79478989 -45.26625141 96.58956356 -44.89830017 98.38412476 C-44.34531674 101.11095742 -43.81470352 103.84192483 -43.28564453 106.57348633 C-42.87376219 108.69387227 -42.45458151 110.81273552 -42.03515625 112.93164062 C-41.77038651 114.29157975 -41.5060484 115.651603 -41.2421875 117.01171875 C-41.0035498 118.23334717 -40.76491211 119.45497559 -40.51904297 120.71362305 C-40.07022033 123.55539232 -39.89212524 126.13317747 -40 129 C-44.4351158 126.62404511 -48.75579859 124.18787538 -52.94921875 121.40625 C-53.64660156 120.94976074 -54.34398437 120.49327148 -55.0625 120.02294922 C-56.46376415 119.10111575 -57.85604313 118.16545619 -59.23828125 117.21533203 C-59.89570313 116.78591309 -60.553125 116.35649414 -61.23046875 115.9140625 C-61.81207764 115.5217041 -62.39368652 115.1293457 -62.99291992 114.72509766 C-68.38387477 112.77750784 -74.70304173 116.22536022 -79.7734375 118.16796875 C-80.61484283 118.48526443 -81.45624817 118.80256012 -82.32315063 119.12947083 C-85.0090844 120.14365804 -87.6920699 121.16539688 -90.375 122.1875 C-92.13912972 122.85532827 -93.9034511 123.5226505 -95.66796875 124.18945312 C-99.12339303 125.49573091 -102.57728261 126.80595704 -106.03027344 128.11865234 C-109.28929236 129.35577688 -112.5526113 130.58013283 -115.82128906 131.79150391 C-116.94006943 132.20690178 -116.94006943 132.20690178 -118.08145142 132.63069153 C-119.47770953 133.14821739 -120.8747862 133.6635419 -122.27279663 134.17631531 C-125.37694693 135.17725296 -125.37694693 135.17725296 -128 137 C-127.34854004 137.37584229 -126.69708008 137.75168457 -126.02587891 138.13891602 C-115.81673177 144.02880859 -105.60758464 149.91870117 -95.3984375 155.80859375 C-94.33890869 156.41985107 -93.27937988 157.0311084 -92.18774414 157.66088867 C-90.05929367 158.88885968 -87.9308758 160.1168872 -85.80249023 161.3449707 C-80.73113944 164.27106053 -75.65946708 167.1965886 -70.5866394 170.12011719 C-68.19573403 171.49806938 -65.80501328 172.87634172 -63.41430664 174.25463867 C-61.73016037 175.22540982 -60.04574769 176.19571874 -58.36132812 177.16601562 C-57.33845703 177.75576172 -56.31558594 178.34550781 -55.26171875 178.953125 C-54.36412842 179.47036133 -53.46653809 179.98759766 -52.54174805 180.52050781 C-51.70297119 181.00874023 -50.86419434 181.49697266 -50 182 C-49.06647705 182.5165918 -48.1329541 183.03318359 -47.17114258 183.56542969 C-46.45466553 184.03883789 -45.73818848 184.51224609 -45 185 C-45 185.66 -45 186.32 -45 187 C-47.1171875 188.9453125 -47.1171875 188.9453125 -49.875 191.125 C-50.77992188 191.84945312 -51.68484375 192.57390625 -52.6171875 193.3203125 C-55 195 -55 195 -57 195 C-57 195.66 -57 196.32 -57 197 C-55.87400391 197.11625732 -54.74800781 197.23251465 -53.58789062 197.35229492 C-48.80338799 197.95350718 -44.24367367 199.11030967 -39.59375 200.36328125 C-38.71078247 200.5965361 -37.82781494 200.82979095 -36.91809082 201.07011414 C-34.11074182 201.81270552 -31.30532449 202.56230069 -28.5 203.3125 C-24.82340346 204.28959899 -21.14608491 205.26396542 -17.46875 206.23828125 C-16.13638306 206.59214401 -16.13638306 206.59214401 -14.77709961 206.95315552 C-6.87078022 209.0479074 1.05779039 211.0462447 9 213 C5.58526926 215.27648716 3.12058184 215.73402835 -0.8984375 216.5078125 C-1.57041168 216.63815887 -2.24238586 216.76850525 -2.9347229 216.90280151 C-4.35461483 217.17660766 -5.77515914 217.44704923 -7.19628906 217.71435547 C-9.36178955 218.12251009 -11.52466554 218.54281526 -13.6875 218.96484375 C-25.24290988 221.1799613 -25.24290988 221.1799613 -30 221 C-30 221.66 -30 222.32 -30 223 C-29.4846167 223.24129639 -28.9692334 223.48259277 -28.43823242 223.73120117 C-25.18508919 225.42406043 -22.09344788 227.35456993 -18.98828125 229.30078125 C-18.28979568 229.73820145 -17.59131012 230.17562164 -16.87165833 230.626297 C-8.76200841 235.73716898 -0.8012403 241.06929068 7.15927124 246.40826416 C11.75089874 249.48737605 16.34804504 252.55822385 20.9453125 255.62890625 C21.87234482 256.24824036 22.79937714 256.86757446 23.75450134 257.50567627 C34.25527184 264.51511247 44.80731564 271.44592916 55.3684082 278.36401367 C56.69747126 279.23479784 58.02649247 280.10564589 59.35546875 280.9765625 C60.30100365 281.596166 60.30100365 281.596166 61.26564026 282.22828674 C68.20294555 286.78003491 75.10314822 291.38727086 82 296 C79.78407317 293.1778037 77.58062065 290.45591754 75.01171875 287.94921875 C74.47434082 287.42021973 73.93696289 286.8912207 73.38330078 286.34619141 C72.82368652 285.79882324 72.26407227 285.25145508 71.6875 284.6875 C64.73277921 277.81700924 64.73277921 277.81700924 61.625 274.125 C59.25801708 271.38184451 56.81967866 268.76476653 54.24609375 266.21484375 C53.56144043 265.53341309 52.87678711 264.85198242 52.17138672 264.14990234 C50.77591601 262.76864805 49.37783865 261.39002181 47.97705078 260.01416016 C47.33622559 259.38171387 46.69540039 258.74926758 46.03515625 258.09765625 C45.4512915 257.52539307 44.86742676 256.95312988 44.26586914 256.36352539 C43 255 43 255 43 254 C47.95 254 52.9 254 58 254 C58 253.34 58 252.68 58 252 C57.11948975 251.60276733 57.11948975 251.60276733 56.22119141 251.19750977 C53.92557308 249.95987425 52.34043619 248.63894023 50.4609375 246.83984375 C49.80295166 246.21537354 49.14496582 245.59090332 48.46704102 244.94750977 C47.77666748 244.28420654 47.08629395 243.62090332 46.375 242.9375 C44.9342807 241.56958862 43.49287614 240.20239861 42.05078125 238.8359375 C41.3542041 238.17432617 40.65762695 237.51271484 39.93994141 236.83105469 C35.19128203 232.34893219 30.30339344 228.02021763 25.39453125 223.71484375 C24.14736328 222.61849609 24.14736328 222.61849609 22.875 221.5 C22.12992188 220.8503125 21.38484375 220.200625 20.6171875 219.53125 C20.08351563 219.0259375 19.54984375 218.520625 19 218 C19 217.67 19 217.34 19 217 C25.93 216.67 32.86 216.34 40 216 C38.39125 214.6078125 38.39125 214.6078125 36.75 213.1875 C32.5778023 209.54052577 28.49608866 205.79894781 24.42041016 202.04516602 C21.68740872 199.53254021 18.93600805 197.04994685 16.125 194.625 C11.69869261 190.79133628 7.43980942 186.7797263 3.16186523 182.7824707 C-0.69702148 179.18443991 -4.60819339 175.66900556 -8.64453125 172.26953125 C-10 171 -10 171 -11 169 C-7.535 167.02 -7.535 167.02 -4 165 C-9.47923365 158.22305311 -15.63212503 151.99198136 -22.84580994 147.05062866 C-26.95797408 144.15687781 -30.30819622 141.78130463 -32.16555786 136.99884033 C-32.770999 133.51632385 -33.06432407 130.13105578 -33.25390625 126.6015625 C-33.36999741 125.33081879 -33.48608856 124.06007507 -33.60569763 122.75082397 C-33.97245608 118.71110323 -34.27576992 114.67093264 -34.5625 110.625 C-34.8531088 106.58650234 -35.16510376 102.55324532 -35.53001404 98.52059937 C-35.75616326 96.02082211 -35.9426514 93.51701385 -36.08192444 91.01089478 C-36.96162322 81.26133704 -41.02373505 76.58244179 -48 70 C-49.16322871 68.70289197 -50.31354829 67.39378615 -51.4375 66.0625 C-54.3988351 62.6531142 -57.44152486 59.3220569 -60.5 56 C-64.13983469 52.04605856 -67.73435923 48.06105339 -71.25 43.99609375 C-73.34078483 41.61129231 -75.48496165 39.27816694 -77.625 36.9375 C-81.07169661 33.12551247 -84.12955552 29.25936923 -87 25 C-79.38450627 26.25090079 -72.02316011 27.96975949 -64.6015625 30.07421875 C-62.47275335 30.66506351 -60.34384418 31.255548 -58.21484375 31.84570312 C-54.90220408 32.76971888 -51.59062775 33.6971984 -48.28076172 34.63110352 C-45.05697918 35.53851926 -41.82965173 36.43226537 -38.6015625 37.32421875 C-37.61193512 37.60746506 -36.62230774 37.89071136 -35.60269165 38.18254089 C-34.67757782 38.43643082 -33.75246399 38.69032074 -32.79931641 38.9519043 C-31.58666611 39.29260201 -31.58666611 39.29260201 -30.34951782 39.6401825 C-26.05084643 40.29850362 -23.54062521 39.36975403 -19.984375 36.9375 C-9.36482441 27.72606662 -5.7094838 16.39814188 -1.73339844 3.20214844 C-1 1 -1 1 0 0 Z " fill="#F4D8AC" transform="translate(503,406)"/>
<path d="M0 0 C1.29381592 0.29003906 1.29381592 0.29003906 2.61376953 0.5859375 C22.58642808 5.20900688 40.48621214 12.81396344 57 25 C57.86367188 25.62132812 58.72734375 26.24265625 59.6171875 26.8828125 C90.19299257 50.04022552 110.88987599 85.9517132 116.7208252 123.72439575 C117.47731159 129.89065293 117.36357082 136.11151661 117.28125 142.31323242 C117.24952024 144.72395049 117.24020256 147.13401357 117.234375 149.54492188 C117.22522284 151.09636214 117.21485285 152.64779582 117.203125 154.19921875 C117.19887512 154.91067551 117.19462524 155.62213226 117.19024658 156.35514832 C117.13747675 160.02815545 116.8153051 163.42088725 116 167 C115.93628632 168.60303627 115.91355786 170.20837672 115.9375 171.8125 C115.95103516 172.99779297 115.95103516 172.99779297 115.96484375 174.20703125 C115.97644531 174.79871094 115.98804688 175.39039063 116 176 C110.59976824 173.28559779 105.63225016 170.11581161 100.75 166.5625 C93.10380962 161.00240597 85.25072815 155.77662016 77.36328125 150.56640625 C73.81136851 148.21757112 70.29141025 145.83006421 66.79296875 143.40234375 C65.56465332 142.55808838 65.56465332 142.55808838 64.31152344 141.69677734 C62.76227664 140.6302761 61.21958475 139.55417119 59.68457031 138.46728516 C58.64768066 137.75838135 58.64768066 137.75838135 57.58984375 137.03515625 C56.99034912 136.6162915 56.39085449 136.19742676 55.77319336 135.76586914 C53.4370027 134.75683291 52.33840069 135.08309135 50 136 C47.74067255 137.97119092 47.74067255 137.97119092 45.5625 140.375 C42.57972635 143.56008352 39.83730161 145.90200441 36 148 C30.69127755 142.31420941 25.43335818 136.63316516 20.5625 130.5625 C16.71889943 125.78378372 12.63039836 121.30842313 8.44165039 116.83618164 C5.32446055 113.48900673 2.36426202 110.06994977 -0.5 106.5 C-4.83412829 101.10204023 -9.49206438 96.06222304 -14.2109375 91.00390625 C-16.98252208 88.03117322 -19.6724591 84.99515837 -22.33203125 81.921875 C-25.51895462 78.24982278 -28.76511988 74.62978757 -32 71 C-41.12150219 78.73344751 -49.91311716 86.82377923 -58.69140625 94.94140625 C-72.82190064 108.00827037 -72.82190064 108.00827037 -79.80078125 114.05078125 C-83.3421829 117.18960793 -86.79966874 120.41977428 -90.25756836 123.65014648 C-91.31093252 124.62994133 -92.36970723 125.6039549 -93.43408203 126.57177734 C-94.49104547 127.53579919 -95.53355547 128.51587592 -96.56201172 129.51025391 C-100.34642577 132.99789848 -100.34642577 132.99789848 -103.4296875 133.0078125 C-104.64011719 132.57082031 -104.64011719 132.57082031 -105.875 132.125 C-106.8134375 131.81304687 -107.751875 131.50109375 -108.71875 131.1796875 C-109.8015625 130.79039062 -110.884375 130.40109375 -112 130 C-114.07498038 129.29846874 -116.15416515 128.61332507 -118.23876953 127.94091797 C-119.64014406 127.48767341 -121.03724861 127.02095989 -122.42919922 126.53955078 C-126.30055909 125.26381628 -129.15489355 124.42370422 -133 126 C-135.14505223 128.0249091 -135.14505223 128.0249091 -137.0625 130.6875 C-137.83722656 131.68136719 -138.61195313 132.67523438 -139.41015625 133.69921875 C-139.82539551 134.23466309 -140.24063477 134.77010742 -140.66845703 135.32177734 C-143.02354237 138.29003122 -145.51839222 141.13751255 -148 144 C-152.31670267 149.00677857 -156.54228744 154.07580199 -160.7109375 159.20703125 C-167.01959599 166.90445586 -173.50894475 174.4563412 -180 182 C-180.33 181.34 -180.66 180.68 -181 180 C-180.505 179.01 -180.505 179.01 -180 178 C-179.34 178 -178.68 178 -178 178 C-178.42333618 176.46593506 -178.42333618 176.46593506 -178.85522461 174.90087891 C-181.65305906 164.27153076 -182.69336429 154.34284258 -182.5625 143.375 C-182.55790771 142.59552002 -182.55331543 141.81604004 -182.54858398 141.01293945 C-182.2393536 102.63314253 -166.43343313 68.3883982 -140 41 C-139.21109375 40.14792969 -138.4221875 39.29585938 -137.609375 38.41796875 C-103.31257822 2.36090591 -47.76733324 -10.87546626 0 0 Z " fill="#FEB704" transform="translate(545,294)"/>
<path d="M0 0 C12.41625 -0.061875 24.8325 -0.12375 37.625 -0.1875 C43.46372803 -0.22846802 43.46372803 -0.22846802 49.42041016 -0.27026367 C54.24487305 -0.28381348 54.24487305 -0.28381348 56.5171814 -0.28633118 C58.07409248 -0.29087988 59.63099432 -0.30130741 61.18783569 -0.31672668 C79.0541669 -0.48453375 96.51698367 1.54217847 110.125 14.4375 C120.03861157 25.27074159 120.68581301 37.69031983 120.14355469 51.72460938 C119.50759085 61.80485248 114.15449268 71.43723546 106.8125 78.3125 C91.26494143 90.26684504 73.78217315 90.43945265 55.125 90.1875 C53.16537494 90.17241598 51.20573857 90.1587342 49.24609375 90.14648438 C44.49687951 90.11637524 39.74927388 90.05760575 35 90 C35 103.2 35 116.4 35 130 C23.45 130 11.9 130 0 130 C0 87.1 0 44.2 0 0 Z " fill="#F4D8AB" transform="translate(237,773)"/>
<path d="M0 0 C4.06576866 1.81727539 7.6119749 4.40206623 11.25 6.9375 C12.70176287 7.94279505 14.15358739 8.94800108 15.60546875 9.953125 C16.34200684 10.46423828 17.07854492 10.97535156 17.83740234 11.50195312 C20.44318973 13.3070007 23.05717345 15.09986056 25.67211914 16.89160156 C33.07071955 21.96350793 40.44429777 27.07156594 47.8125 32.1875 C48.75488525 32.84065186 49.69727051 33.49380371 50.66821289 34.16674805 C52.52227515 35.45564837 54.37201156 36.7507945 56.21728516 38.05224609 C58.10726289 39.37513102 60.01403338 40.67427906 61.93505859 41.95166016 C68.27040443 46.28050978 72.29019404 50.30605095 76 57 C76.56009766 57.97437012 77.12019531 58.94874023 77.69726562 59.95263672 C79.57934848 63.26447585 81.41748488 66.59800402 83.25 69.9375 C83.91708556 71.13833994 84.58489977 72.33877539 85.25341797 73.53881836 C88.17124018 78.78747123 91.0535202 84.04285243 93.7421875 89.4140625 C99.55133514 100.86105492 105.70607538 107.01204533 116.79296875 113.6796875 C120.08326372 117.13886487 119.96684492 120.63740734 120.5 125.25 C122.20480458 136.10768913 126.96086536 142.2575853 134.30712891 150.1328125 C136.97238124 153.07250818 139.34655923 156.22094024 141.75 159.375 C145.6032501 164.34047129 149.65960895 169.04131838 153.91796875 173.66796875 C157.14959076 177.28762792 160.08690684 181.12212036 163 185 C161.81763961 182.45584242 160.6298635 179.91447505 159.4375 177.375 C159.05271484 176.55410889 158.66792969 175.73321777 158.27148438 174.88745117 C155.63885634 169.32234562 152.90481238 163.81821686 150.09765625 158.33984375 C149.41533524 157.00152129 148.7331254 155.66314214 148.05102539 154.32470703 C147.03260814 152.32711813 146.01023688 150.33214548 144.97409058 148.34368896 C138.02592962 135.00633465 138.02592962 135.00633465 138 128 C137.91819085 125.59365225 137.83317133 123.18741286 137.74609375 120.78125 C137.72432571 120.12071121 137.70255768 119.46017242 137.68013 118.77961731 C137.2199415 105.32865523 136.74871685 93.77396845 129.3203125 82.18505859 C126.45673228 77.44596042 124.13275103 72.40093565 121.6875 67.4375 C120.56529836 65.1952153 119.44290202 62.95302803 118.3203125 60.7109375 C114.71425209 53.45895913 111.21718494 46.15651273 107.77807617 38.82397461 C105.09631623 33.14386904 102.18633809 27.66669331 99.03686523 22.23022461 C98.69469971 21.49425049 98.35253418 20.75827637 98 20 C98.33 19.34 98.66 18.68 99 18 C106.31397003 25.29071994 113.62517742 32.58419806 120.93294621 39.88113403 C124.32692905 43.26991564 127.72182847 46.65776793 131.11889648 50.04345703 C134.40198401 53.31561712 137.68256707 56.59026948 140.96148491 59.86660767 C142.20800773 61.11129391 143.45540502 62.35510509 144.703722 63.59799194 C156.62170447 75.46622581 156.62170447 75.46622581 161.55271912 81.37402344 C163.20906109 83.23487385 165.00836711 84.85218028 166.875 86.5 C172.75949908 92.22296381 176.22759558 99.80448787 180 107 C175.88912218 107 173.52250957 104.93601864 170.25 102.6875 C169.59765381 102.24615723 168.94530762 101.80481445 168.27319336 101.35009766 C161.0461176 96.42148594 154.01028451 91.2303683 147 86 C147.36609375 86.57363281 147.7321875 87.14726563 148.109375 87.73828125 C151.08195931 92.40240759 154.04674557 97.07114736 156.99609375 101.75 C157.52170898 102.58362061 158.04732422 103.41724121 158.58886719 104.27612305 C159.63835657 105.9412338 160.68720569 107.6067483 161.73535156 109.27270508 C162.22874023 110.05540771 162.72212891 110.83811035 163.23046875 111.64453125 C163.70145996 112.3917041 164.17245117 113.13887695 164.65771484 113.90869141 C165.85960101 115.78125541 167.10076265 117.61731814 168.36328125 119.44921875 C170 122 170 122 170 124 C162.52164523 122.77048326 155.2783523 121.11170763 148 119 C148.4846875 120.17691406 148.969375 121.35382813 149.46875 122.56640625 C153.61155283 132.72191108 157.45124501 142.93244382 160.97827148 153.31811523 C162.65865472 158.23867323 164.40698003 163.1123771 166.31640625 167.94921875 C166.88004883 169.38019897 166.88004883 169.38019897 167.45507812 170.84008789 C168.17571862 172.65233351 168.90696112 174.46041097 169.65039062 176.26342773 C172.69986738 183.9396181 172.69986738 183.9396181 171 188 C169.7578125 189.81640625 169.7578125 189.81640625 168.125 191.5625 C167.49335937 192.24957031 166.86171875 192.93664062 166.2109375 193.64453125 C165.48132813 194.42183594 164.75171875 195.19914063 164 196 C162.71020037 197.41159186 161.42048207 198.82325951 160.13256836 200.23657227 C158.73259291 201.76905466 157.32578741 203.29503521 155.91796875 204.8203125 C153.92241129 206.98614855 151.94881577 209.16960943 149.98828125 211.3671875 C149.49811523 211.9127832 149.00794922 212.45837891 148.50292969 213.02050781 C147.13500238 214.54423972 145.77242619 216.07277061 144.41015625 217.6015625 C142.2854125 219.71597524 140.75395087 220.91375488 138 222 C137.62875 221.195625 137.2575 220.39125 136.875 219.5625 C131.0188443 208.09857095 122.24865238 199.77315387 113.08007812 190.95117188 C112.550923 190.44016434 112.02176788 189.9291568 111.47657776 189.40266418 C110.01095213 187.9924048 108.53587736 186.59198493 107.06030273 185.19213867 C105 183 105 183 105 181 C104.34 181 103.68 181 103 181 C101.80078125 179.77734375 101.80078125 179.77734375 100.3125 177.9375 C94.33236379 170.87122794 87.5816 164.499092 81 158 C84.17459631 156.98501453 86.30877671 157.05533535 89.546875 157.77734375 C90.81337891 158.05288086 90.81337891 158.05288086 92.10546875 158.33398438 C93.41451172 158.63272461 93.41451172 158.63272461 94.75 158.9375 C95.63816406 159.13279297 96.52632812 159.32808594 97.44140625 159.52929688 C99.62949322 160.01161712 101.8154173 160.50209032 104 161 C103.61070312 160.3915625 103.22140625 159.783125 102.8203125 159.15625 C100.12470251 154.93271362 97.43197061 150.70929527 94.80078125 146.4453125 C89.58612107 138.00546367 84.1828685 129.71271547 78.65917969 121.47192383 C71.74693936 111.15240983 64.96799335 100.74661539 58.18212891 90.34375 C55.2964249 85.92188806 52.40597251 81.50314048 49.51538086 77.08447266 C26.52520851 41.93969224 26.52520851 41.93969224 17.08520508 27.31420898 C14.54659495 23.38258124 11.99535802 19.45955808 9.43359375 15.54296875 C8.8317627 14.62153076 8.22993164 13.70009277 7.60986328 12.75073242 C6.42911459 10.94368332 5.24655228 9.13781772 4.06201172 7.33325195 C3.53236816 6.52202881 3.00272461 5.71080566 2.45703125 4.875 C1.98241455 4.15054687 1.50779785 3.42609375 1.01879883 2.6796875 C0 1 0 1 0 0 Z " fill="#F3D9AC" transform="translate(600,440)"/>
<path d="M0 0 C14.52 0 29.04 0 44 0 C49.04368592 13.59602292 54.0781646 27.19463426 59.0625 40.8125 C63.5229994 52.99369162 68.00695302 65.16615303 72.50195312 77.33465576 C73.24809694 79.35463738 73.9940294 81.37469709 74.73974609 83.39483643 C79.87215095 97.30123938 79.87215095 97.30123938 85.08984375 111.17578125 C85.51894043 112.30773926 85.94803711 113.43969727 86.39013672 114.60595703 C87.14365202 116.58656306 87.90143709 118.56555279 88.66455078 120.54248047 C88.98278809 121.3779541 89.30102539 122.21342773 89.62890625 123.07421875 C89.89775635 123.77119873 90.16660645 124.46817871 90.44360352 125.1862793 C91 127 91 127 91 130 C78.46 130 65.92 130 53 130 C51.68 126.41125 50.36 122.8225 49 119.125 C48.58234375 117.99465332 48.1646875 116.86430664 47.734375 115.69970703 C47.40953125 114.81138184 47.0846875 113.92305664 46.75 113.0078125 C46.24726562 111.64100342 46.24726562 111.64100342 45.734375 110.24658203 C45 108 45 108 45 106 C28.5 106 12 106 -5 106 C-5.99 109.63 -6.98 113.26 -8 117 C-9.65 121.29 -11.3 125.58 -13 130 C-24.88 130 -36.76 130 -49 130 C-45.62499359 118.74997865 -45.62499359 118.74997865 -44.17260742 114.91992188 C-43.84262253 114.04466858 -43.51263763 113.16941528 -43.1726532 112.26763916 C-42.82048233 111.34400574 -42.46831146 110.42037231 -42.10546875 109.46875 C-41.72522049 108.46309998 -41.34497223 107.45744995 -40.95320129 106.42132568 C-39.70130506 103.11294187 -38.44451077 99.80644359 -37.1875 96.5 C-36.30637303 94.17555715 -35.4255188 91.85101089 -34.54492188 89.52636719 C-32.91830621 85.23367546 -31.29048156 80.94144697 -29.66101265 76.64983749 C-26.66061547 68.74713748 -23.67118514 60.8403316 -20.68508339 52.93222046 C-19.18719545 48.96637857 -17.68761128 45.00117791 -16.18785763 41.03604126 C-14.97878194 37.83928677 -13.77041394 34.64226928 -12.56381226 31.44458008 C-11.21171383 27.86314133 -9.856264 24.28298799 -8.5 20.703125 C-8.10287308 19.64905457 -7.70574615 18.59498413 -7.29658508 17.50897217 C-6.92027451 16.51762268 -6.54396393 15.52627319 -6.15625 14.50488281 C-5.83462891 13.6543634 -5.51300781 12.80384399 -5.18164062 11.92755127 C-3.5591664 7.9078211 -1.76053662 3.96120739 0 0 Z " fill="#F4D9AC" transform="translate(553,773)"/>
<path d="M0 0 C34.65 0 69.3 0 105 0 C105 9.57 105 19.14 105 29 C81.9 29 58.8 29 35 29 C35 35.93 35 42.86 35 50 C55.46 50 75.92 50 97 50 C97 59.24 97 68.48 97 78 C76.54 78 56.08 78 35 78 C35 85.92 35 93.84 35 102 C57.77 102 80.54 102 104 102 C104 111.24 104 120.48 104 130 C69.68 130 35.36 130 0 130 C0 87.1 0 44.2 0 0 Z " fill="#F4D7AB" transform="translate(379,773)"/>
<path d="M0 0 C11.55 0 23.1 0 35 0 C35.33 18.15 35.66 36.3 36 55 C40.95 48.4 45.9 41.8 51 35 C57.37418713 26.65847117 63.8138608 18.3692276 70.26782227 10.08935547 C70.83815186 9.3573291 71.40848145 8.62530273 71.99609375 7.87109375 C72.50325928 7.22068115 73.0104248 6.57026855 73.53295898 5.90014648 C75.07245127 4.02907331 75.07245127 4.02907331 76.12255859 1.7824707 C79.25320851 -1.18981474 82.90002917 -0.49014196 87.04296875 -0.390625 C88.36836418 -0.38213531 88.36836418 -0.38213531 89.72053528 -0.37347412 C92.54340743 -0.35107867 95.36501138 -0.30087727 98.1875 -0.25 C100.10089313 -0.22993906 102.01430615 -0.21168758 103.92773438 -0.1953125 C108.61897842 -0.15120357 113.30927418 -0.08215485 118 0 C114.61339191 5.22337564 111.17257604 10.20648079 107.125 14.9375 C100.33703619 22.94772973 93.84859376 31.18326983 87.37207031 39.4453125 C81.96380237 46.33606887 76.48256747 53.16831907 71 60 C72.67803327 63.86228886 75.20350161 66.98668575 77.8125 70.25 C78.29605957 70.86061279 78.77961914 71.47122559 79.27783203 72.1003418 C82.93557878 76.70490242 86.65351206 81.25945432 90.375 85.8125 C95.45918256 92.03330704 100.38763187 98.35751579 105.24316406 104.75805664 C109.25473384 110.04419931 113.3346014 115.27125639 117.48681641 120.44775391 C119.92383236 123.51391882 122.01858333 126.62625572 124 130 C118.32615407 130.27353515 112.65619964 130.47222515 106.97729492 130.60424805 C105.04953123 130.65930856 103.12222162 130.73418957 101.19604492 130.82983398 C85.2307585 131.60228122 85.2307585 131.60228122 79.83789062 127.72875977 C77.53169315 124.93099564 75.74208347 122.17373738 74 119 C73.17163769 117.84238044 72.32862616 116.69484923 71.4609375 115.56640625 C70.77257812 114.57511719 70.08421875 113.58382812 69.375 112.5625 C64.40564724 105.47933333 59.21325915 98.57028427 54.00146484 91.66430664 C53.38223145 90.84309326 52.76299805 90.02187988 52.125 89.17578125 C51.57070313 88.44270752 51.01640625 87.70963379 50.4453125 86.9543457 C49.24926018 85.3370486 48.11578755 83.67368133 47 82 C46.34 82 45.68 82 45 82 C43.26111909 83.71885317 43.26111909 83.71885317 41.5 85.875 C39.71066742 87.99035504 37.95980876 90.04019124 36 92 C35.75418157 94.86436824 35.62630619 97.6390314 35.5859375 100.5078125 C35.56657135 101.34843231 35.5472052 102.18905212 35.5272522 103.05514526 C35.46738342 105.74499303 35.42104229 108.43488343 35.375 111.125 C35.3368269 112.94663344 35.29777556 114.7682487 35.2578125 116.58984375 C35.16001942 121.05980224 35.08051024 125.52956277 35 130 C23.45 130 11.9 130 0 130 C0 87.1 0 44.2 0 0 Z " fill="#F4D8AB" transform="translate(667,773)"/>
<path d="M0 0 C7.7662947 6.27913188 14.11082707 13.623086 20.375 21.375 C24.05701535 25.92940923 27.92900357 30.23747565 31.91577148 34.52124023 C34.8868675 37.73263407 37.69946588 41.02609763 40.4375 44.4375 C43.80360981 48.62255603 47.33327447 52.58156868 51 56.5 C54.74789164 60.53157052 58.47527083 64.57364864 62.0625 68.75 C62.75472656 69.54921875 63.44695313 70.3484375 64.16015625 71.171875 C69.15852489 78.8551423 70.20947868 88.31611482 71.84472656 97.18603516 C72.25333857 99.39303231 72.67688019 101.5968265 73.1015625 103.80078125 C73.36547835 105.20816579 73.62853103 106.61571253 73.890625 108.0234375 C74.12813477 109.29106934 74.36564453 110.55870117 74.61035156 111.86474609 C75 115 75 115 74 118 C72.47621168 116.04390956 70.95599263 114.08519598 69.4375 112.125 C69.01919922 111.58875 68.60089844 111.0525 68.16992188 110.5 C64.26980558 105.45624059 60.62693095 100.24249776 57 95 C57.28049194 96.05912598 57.28049194 96.05912598 57.56665039 97.13964844 C58.40846556 100.34059867 59.23562201 103.54516024 60.0625 106.75 C60.35705078 107.86117187 60.65160156 108.97234375 60.95507812 110.1171875 C61.22900391 111.18710937 61.50292969 112.25703125 61.78515625 113.359375 C62.04176025 114.34389648 62.29836426 115.32841797 62.56274414 116.34277344 C62.99725787 118.98333592 62.87325 120.50203857 62 123 C61.31292969 122.02417969 60.62585938 121.04835938 59.91796875 120.04296875 C59.00796443 118.75770492 58.09779976 117.4725546 57.1875 116.1875 C56.50977539 115.22360352 56.50977539 115.22360352 55.81835938 114.24023438 C55.37685547 113.61826172 54.93535156 112.99628906 54.48046875 112.35546875 C54.07723389 111.78465576 53.67399902 111.21384277 53.25854492 110.62573242 C51.80944315 108.68315582 51.80944315 108.68315582 49 106 C49.495 113.92 49.495 113.92 50 122 C47.3154176 119.3154176 46.01938679 117.47056293 44.30078125 114.18359375 C43.81416016 113.25482422 43.32753906 112.32605469 42.82617188 111.36914062 C42.0769043 109.91797852 42.0769043 109.91797852 41.3125 108.4375 C40.80138672 107.46619141 40.29027344 106.49488281 39.76367188 105.49414062 C36 98.26326769 36 98.26326769 36 96 C32.59126484 98.24666636 29.25200793 100.53271572 26 103 C23.04418176 93.25626288 20.27649553 83.47295574 17.6875 73.625 C17.42114746 72.62073975 17.15479492 71.61647949 16.88037109 70.58178711 C16.63496582 69.63956299 16.38956055 68.69733887 16.13671875 67.7265625 C15.80740356 66.46706787 15.80740356 66.46706787 15.47143555 65.18212891 C15 63 15 63 15 60 C17.64 60 20.28 60 23 60 C22.59442871 59.01664673 22.59442871 59.01664673 22.18066406 58.01342773 C16.71016019 44.72578935 11.32447142 31.40874435 6.11975098 18.01467896 C5.58157137 16.62986136 5.04226432 15.2454814 4.50183105 13.86154175 C3.7436726 11.91819825 2.99019821 9.97310934 2.23828125 8.02734375 C1.80555908 6.91093506 1.37283691 5.79452637 0.92700195 4.64428711 C0 2 0 2 0 0 Z " fill="#F3D8AC" transform="translate(513,379)"/>
<path d="M0 0 C-2.2875766 9.44787732 -5.55974563 18.34457328 -10 27 C-9.13761719 26.98839844 -8.27523437 26.97679687 -7.38671875 26.96484375 C3.1067444 26.88727855 13.52706086 27.36869258 24 28 C15.8313499 36.25776265 7.24022255 43.961097 -1.8203125 51.22265625 C-4.03388959 52.96645184 -4.03388959 52.96645184 -6 55 C-12.82333603 54.78460721 -18.37386767 52.47988921 -24.5625 49.75 C-25.9227832 49.17572266 -25.9227832 49.17572266 -27.31054688 48.58984375 C-32.72871297 46.24026919 -37.3279918 43.61455778 -42 40 C-42.35864286 34.74946855 -42.34427914 29.78331208 -40 25 C-35.71192848 20.38157462 -29.9252678 17.43782452 -24.47460938 14.39648438 C-21.32106918 12.61686225 -18.26900439 10.69750927 -15.21142578 8.7590332 C-13.23695807 7.50841376 -11.24922341 6.28197813 -9.2578125 5.05859375 C-6.09808026 3.13035179 -6.09808026 3.13035179 -3.6796875 1.22265625 C-2 0 -2 0 0 0 Z " fill="#F3DAAD" transform="translate(394,671)"/>
<path d="M0 0 C5.0176117 -0.0690497 10.03356045 -0.12872743 15.05126953 -0.16479492 C16.75640463 -0.17983738 18.46150132 -0.20027653 20.16650391 -0.22631836 C22.62412012 -0.26290284 25.08122269 -0.27977173 27.5390625 -0.29296875 C28.29555084 -0.30845261 29.05203918 -0.32393646 29.83145142 -0.33988953 C35.2894657 -0.34160653 39.50878331 0.67446993 43.64453125 4.53515625 C47.45466073 9.51763326 48.76442794 12.68516051 48 19 C46.89584897 22.89617625 45.45885723 25.94316606 42.12890625 28.35546875 C36.08317735 31.52119069 30.52522904 32.12561823 23.73046875 32.09765625 C22.48418701 32.09515869 21.23790527 32.09266113 19.95385742 32.09008789 C18.38095947 32.08098389 16.80806152 32.07187988 15.1875 32.0625 C7.6696875 32.0315625 7.6696875 32.0315625 0 32 C0 21.44 0 10.88 0 0 Z " fill="#13304D" transform="translate(272,802)"/>
<path d="M0 0 C0.66 0.33 1.32 0.66 2 1 C-2.62 7.27 -7.24 13.54 -12 20 C-8.00701704 19.00175426 -4.14542313 17.75192917 -0.25 16.4375 C0.44738281 16.20353516 1.14476562 15.96957031 1.86328125 15.72851562 C3.5759787 15.15370621 5.28805186 14.57703725 7 14 C5.6878302 17.58152628 4.10380616 20.55247708 1.9375 23.6875 C-0.1822024 26.75500089 -0.1822024 26.75500089 -2 30 C0.31 30.33 2.62 30.66 5 31 C1.49867692 34.93898847 -2.51768841 37.31061305 -7 40 C-2.71 40 1.58 40 6 40 C0.36448598 45.94859813 0.36448598 45.94859813 -3 47 C-7.82540197 46.5811586 -11.45067896 44.17245713 -15.4375 41.625 C-16.13327148 41.18454346 -16.82904297 40.74408691 -17.54589844 40.2902832 C-22.44592697 37.13193148 -27.15217948 33.77048904 -31.75 30.1875 C-32.60742798 29.52258545 -32.60742798 29.52258545 -33.48217773 28.84423828 C-36.81310911 26.18049271 -39.39180431 23.35614446 -42 20 C-41.25497726 19.64628075 -41.25497726 19.64628075 -40.49490356 19.28541565 C-35.33649233 16.83627446 -30.1782163 14.3868487 -25.02001953 11.93725586 C-23.09362211 11.02246889 -21.16718994 10.10775507 -19.24072266 9.19311523 C-16.47549501 7.88023695 -13.71039143 6.5670977 -10.9453125 5.25390625 C-9.6483696 4.63824547 -9.6483696 4.63824547 -8.32522583 4.01014709 C-7.52454681 3.62982834 -6.7238678 3.24950958 -5.89892578 2.85766602 C-4.83969406 2.35469749 -4.83969406 2.35469749 -3.75906372 1.84156799 C-2.50038665 1.23939405 -1.24800045 0.62400023 0 0 Z " fill="#F3DBAF" transform="translate(333,649)"/>
<path d="M0 0 C2.66666667 8 5.33333333 16 8 24 C3.815167 24.70443117 -0.37314898 25.38550088 -4.5625 26.0625 C-5.74392578 26.26166016 -6.92535156 26.46082031 -8.14257812 26.66601562 C-19.95196242 28.55154757 -27.15654745 26.36597141 -38 21.625 C-39.14984375 21.13 -40.2996875 20.635 -41.484375 20.125 C-44.65933313 18.75698809 -47.82988709 17.37919111 -51 16 C-53.3318173 14.99639659 -55.66558742 13.99755421 -58 13 C-58 12.34 -58 11.68 -58 11 C-53.92594804 9.99870158 -49.85082744 9.0019121 -45.7746582 8.00927734 C-44.38828813 7.67099591 -43.00221708 7.33148648 -41.61645508 6.99072266 C-39.62398475 6.5009933 -37.63047905 6.01569722 -35.63671875 5.53125 C-34.43748779 5.23798828 -33.23825684 4.94472656 -32.00268555 4.64257812 C-29 4 -29 4 -26 4 C-26 6.97 -26 9.94 -26 13 C-22.93655001 11.39762625 -19.8742204 9.79317248 -16.8125 8.1875 C-15.94818359 7.73568359 -15.08386719 7.28386719 -14.19335938 6.81835938 C-10.74498971 5.00829561 -7.33692047 3.20567563 -4.01171875 1.17578125 C-2 0 -2 0 0 0 Z " fill="#132C4B" transform="translate(370,546)"/>
<path d="M0 0 C34.65 0 69.3 0 105 0 C105 9.57 105 19.14 105 29 C81.9 29 58.8 29 35 29 C35 35.6 35 42.2 35 49 C34.67 49 34.34 49 34 49 C33.97112186 45.52085059 33.95324313 42.04173169 33.9375 38.5625 C33.92912109 37.56927734 33.92074219 36.57605469 33.91210938 35.55273438 C33.90888672 34.60849609 33.90566406 33.66425781 33.90234375 32.69140625 C33.89710693 31.81685791 33.89187012 30.94230957 33.88647461 30.04125977 C34 28 34 28 35 27 C37.14743549 26.90574405 39.29801026 26.88257352 41.44750977 26.88647461 C42.45722336 26.88625557 42.45722336 26.88625557 43.48733521 26.8860321 C45.72205784 26.88673122 47.9566981 26.89452348 50.19140625 26.90234375 C51.73697362 26.90420794 53.28254157 26.90563184 54.82810974 26.90663147 C58.90357077 26.9104566 62.97899637 26.92028683 67.05444336 26.93133545 C71.21011882 26.94154968 75.36579999 26.94612911 79.52148438 26.95117188 C87.68100768 26.96190911 95.84049536 26.97950586 104 27 C104 18.75 104 10.5 104 2 C70.01 2 36.02 2 1 2 C1 43.58 1 85.16 1 128 C34.33 128 67.66 128 102 128 C102 119.75 102 111.5 102 103 C79.89 103 57.78 103 35 103 C35 102.67 35 102.34 35 102 C57.77 102 80.54 102 104 102 C104 111.24 104 120.48 104 130 C69.68 130 35.36 130 0 130 C0 87.1 0 44.2 0 0 Z " fill="#FCF0B8" transform="translate(379,773)"/>
<path d="M0 0 C2.11432649 2.11432649 2.53060996 3.14357591 3.40454102 5.92724609 C3.66143204 6.7350351 3.91832306 7.5428241 4.18299866 8.37509155 C4.45389816 9.24904572 4.72479767 10.12299988 5.00390625 11.0234375 C5.28725327 11.92115875 5.57060028 12.81888 5.86253357 13.74380493 C6.76833254 16.61908024 7.66535054 19.49701561 8.5625 22.375 C9.170682 24.30746231 9.77939949 26.23975619 10.38867188 28.171875 C11.50382555 31.71827413 12.6186303 35.26476891 13.72485352 38.81396484 C13.9475441 39.52741058 14.17023468 40.24085632 14.39967346 40.97592163 C14.99045885 42.96783079 15.49609002 44.9843601 16 47 C6.1 47 -3.8 47 -14 47 C-13.24879537 41.7415676 -12.27189527 37.28323411 -10.56640625 32.34375 C-10.32840805 31.63778687 -10.09040985 30.93182373 -9.84519958 30.20446777 C-9.09001027 27.96766204 -8.32665459 25.73375699 -7.5625 23.5 C-6.80349018 21.26574186 -6.04623655 19.0309037 -5.29051208 16.79553223 C-4.82194997 15.4112227 -4.35127414 14.02762605 -3.87806702 12.64489746 C-2.45431631 8.45890838 -1.18327962 4.25829269 0 0 Z " fill="#182F4C" transform="translate(573,803)"/>
<path d="M0 0 C3.01389885 1.04540267 3.65598032 1.92699449 5.23852539 4.65087891 C5.7006543 5.42818359 6.1627832 6.20548828 6.63891602 7.00634766 C7.10362305 7.82490234 7.56833008 8.64345703 8.04711914 9.48681641 C8.74998047 10.67984375 8.74998047 10.67984375 9.46704102 11.89697266 C10.82414044 14.20878679 12.15805871 16.53237022 13.48461914 18.86181641 C13.8905127 19.57047852 14.29640625 20.27914062 14.71459961 21.00927734 C15.64001707 22.62560261 16.5626639 24.24351379 17.48461914 25.86181641 C2.51033886 27.20146375 -13.25625456 23.20861559 -27.51538086 18.86181641 C-27.51538086 18.20181641 -27.51538086 17.54181641 -27.51538086 16.86181641 C-26.00366211 15.67041016 -26.00366211 15.67041016 -23.82788086 14.29931641 C-19.7076762 11.64640244 -15.6609725 8.91206281 -11.64038086 6.11181641 C-2.64203281 -0.14514128 -2.64203281 -0.14514128 0 0 Z " fill="#F1DAAE" transform="translate(448.515380859375,719.13818359375)"/>
<path d="M0 0 C11.22 0 22.44 0 34 0 C34 18.81 34 37.62 34 57 C33.67 57 33.34 57 33 57 C33 38.85 33 20.7 33 2 C22.77 2 12.54 2 2 2 C2 43.58 2 85.16 2 128 C12.23 128 22.46 128 33 128 C33 128.66 33 129.32 33 130 C22.11 130 11.22 130 0 130 C0 87.1 0 44.2 0 0 Z " fill="#FBEDB7" transform="translate(667,773)"/>
<path d="M0 0 C1.98 0 3.96 0 6 0 C5.34 0.66 4.68 1.32 4 2 C4.49127884 2.3233432 4.98255768 2.6466864 5.48872375 2.97982788 C11.76410889 7.11034803 18.03857492 11.24226251 24.3125 15.375 C25.82135269 16.3688974 25.82135269 16.3688974 27.36068726 17.38287354 C39.19898181 25.18232908 51.02740942 32.99536617 62.8125 40.875 C71.18734285 46.46970422 79.5770885 52.04042524 88 57.5625 C88.9691333 58.20106934 89.9382666 58.83963867 90.93676758 59.49755859 C91.82388428 60.07715332 92.71100098 60.65674805 93.625 61.25390625 C94.40101563 61.76252197 95.17703125 62.2711377 95.9765625 62.79516602 C98.08049227 64.14552463 98.08049227 64.14552463 101 65 C100.57589844 64.5875 100.15179687 64.175 99.71484375 63.75 C96.68055053 60.76238821 93.7476355 57.7543423 91 54.5 C85.08839896 47.61906022 78.45059056 41.36972491 72 35 C72.495 34.01 72.495 34.01 73 33 C76.00831496 35.98330019 79.01310394 38.97009741 82.01489258 41.95996094 C83.03317292 42.97326152 84.05235474 43.98565712 85.07250977 44.99707031 C90.37431751 50.25463126 95.5811847 55.53413763 100.43774414 61.21289062 C102.97023826 64.10988343 105.69559324 66.80281694 108.4375 69.5 C108.97826172 70.03625 109.51902344 70.5725 110.07617188 71.125 C111.38176617 72.41904036 112.69052996 73.70988174 114 75 C110.3377585 75 109.1353537 74.03740542 106.08203125 72.0625 C105.08905029 71.42417236 104.09606934 70.78584473 103.07299805 70.12817383 C101.99703369 69.42587646 100.92106934 68.7235791 99.8125 68 C98.67057618 67.26092945 97.52840059 66.52224777 96.38598633 65.78393555 C88.33712968 60.57056036 80.34645353 55.27004879 72.38037109 49.93115234 C59.55165046 41.33831067 46.64243899 32.86715784 33.74487305 24.37817383 C23.47506714 17.61733733 13.22062113 10.83497956 3 4 C2.01 3.34 1.02 2.68 0 2 C0 1.34 0 0.68 0 0 Z " fill="#121B3E" transform="translate(473,627)"/>
<path d="M0 0 C23.43 0 46.86 0 71 0 C70.67 0.66 70.34 1.32 70 2 C47.56 2 25.12 2 2 2 C2 7.94 2 13.88 2 20 C21.8 20 41.6 20 62 20 C62 20.33 62 20.66 62 21 C41.54 21 21.08 21 0 21 C0 14.07 0 7.14 0 0 Z " fill="#031440" transform="translate(414,802)"/>
<path d="M0 0 C9.9 0 19.8 0 30 0 C26.03379202 1.98310399 24.60857712 2.24051678 20.359375 2.1953125 C19.39483398 2.19031738 18.43029297 2.18532227 17.43652344 2.18017578 C16.2199707 2.16196777 15.00341797 2.14375977 13.75 2.125 C7.93375 2.063125 7.93375 2.063125 2 2 C2 11.57 2 21.14 2 31 C2.66 30.67 3.32 30.34 4 30 C6.24114275 29.86864624 8.48589535 29.7970907 10.73046875 29.75390625 C12.10482345 29.72094177 13.47917226 29.68773061 14.85351562 29.65429688 C17.01468473 29.60709696 19.17583456 29.5627133 21.3371582 29.52319336 C23.42685872 29.48311297 25.51605418 29.43163413 27.60546875 29.37890625 C28.85481201 29.3538501 30.10415527 29.32879395 31.39135742 29.30297852 C35.22935128 28.98074386 38.3477259 28.173788 42 27 C39.82300905 29.99336256 37.22341115 30.77584927 33.71484375 31.60302734 C27.53827954 32.50618323 21.22492088 32.19833362 15 32.125 C10.05 32.08375 5.1 32.0425 0 32 C0 21.44 0 10.88 0 0 Z " fill="#142044" transform="translate(272,802)"/>
<path d="M0 0 C4.33333333 4.33333333 8.66666667 8.66666667 13 13 C12.484375 11.906875 11.96875 10.81375 11.4375 9.6875 C10 6 10 6 11 3 C12.03041513 4.95330868 13.0490893 6.91281528 14.0625 8.875 C14.63097656 9.96554687 15.19945312 11.05609375 15.78515625 12.1796875 C16.38650391 13.57574219 16.38650391 13.57574219 17 15 C16.67 15.66 16.34 16.32 16 17 C15.34 17 14.68 17 14 17 C13.66781808 20.00259517 13.66781808 20.00259517 15.5 21.6875 C16.2425 22.3371875 16.2425 22.3371875 17 23 C10.81038647 21.32713148 5.55794051 18.11786907 0 15 C0 10.05 0 5.1 0 0 Z " fill="#112647" transform="translate(513,475)"/>
<path d="M0 0 C0 9.24 0 18.48 0 28 C-20.46 28 -40.92 28 -62 28 C-62 27.67 -62 27.34 -62 27 C-42.2 27 -22.4 27 -2 27 C-2 18.75 -2 10.5 -2 2 C-21.8 2 -41.6 2 -62 2 C-62 1.67 -62 1.34 -62 1 C-54.21151615 0.86942042 -46.42302934 0.73901961 -38.63453865 0.60884857 C-35.01823912 0.54840278 -31.40194066 0.48789484 -27.78564453 0.42724609 C-24.29732374 0.36874588 -20.80900028 0.31040732 -17.3206749 0.25218201 C-15.33862879 0.21905612 -13.3565855 0.18576176 -11.37454224 0.15246582 C-10.17344818 0.13244507 -8.97235413 0.11242432 -7.73486328 0.09179688 C-6.67341095 0.07403198 -5.61195862 0.05626709 -4.51834106 0.03796387 C-3.01234533 0.01526106 -1.50616685 0 0 0 Z " fill="#FCF3BE" transform="translate(476,823)"/>
<path d="M0 0 C5.25491032 4.28972271 9.64230444 8.81584494 14 14 C14.94981026 15.1112848 15.90038929 16.22191281 16.8515625 17.33203125 C17.8597219 18.51272471 18.8675338 19.69371499 19.875 20.875 C20.36387695 21.44677979 20.85275391 22.01855957 21.35644531 22.60766602 C25.49630754 27.49074875 26.119026 29.57259573 26 36 C24.93396021 33.94406612 23.99625904 31.98845181 23.28125 29.78125 C21.55555707 26.03523364 19.08192786 23.26886331 16.375 20.1875 C15.859375 19.59001953 15.34375 18.99253906 14.8125 18.37695312 C13.54753728 16.91287591 12.27456166 15.45572845 11 14 C9.3372974 16.67478244 8.00016187 18.9995144 7 22 C5.82828244 18.71010914 4.66348912 15.41780898 3.5 12.125 C3.16613281 11.18785156 2.83226562 10.25070312 2.48828125 9.28515625 C2.17246094 8.38925781 1.85664063 7.49335938 1.53125 6.5703125 C1.23798828 5.74289551 0.94472656 4.91547852 0.64257812 4.06298828 C0 2 0 2 0 0 Z " fill="#F2E3B6" transform="translate(430,464)"/>
<path d="M0 0 C0.33 0.66 0.66 1.32 1 2 C0.45730469 2.47050781 -0.08539063 2.94101562 -0.64453125 3.42578125 C-1.35996094 4.04839844 -2.07539063 4.67101562 -2.8125 5.3125 C-3.52019531 5.92738281 -4.22789062 6.54226563 -4.95703125 7.17578125 C-6.98722766 8.91327421 -6.98722766 8.91327421 -8.5234375 10.7421875 C-10 12 -10 12 -13.8125 11.8125 C-17.34239162 11.22527219 -20.64550715 10.25793482 -24 9 C-24 8.34 -24 7.68 -24 7 C-16.08 4.69 -8.16 2.38 0 0 Z " fill="#E8D6AE" transform="translate(428,724)"/>
<path d="M0 0 C6.44690639 5.31014254 12.29949437 11.17126884 18.18359375 17.0859375 C19.24954109 18.15375345 20.31571205 19.22134622 21.38209534 20.28872681 C24.16750139 23.07792318 26.94988929 25.870111 29.73162842 28.66296387 C32.57901064 31.52063575 35.42927986 34.37542502 38.27929688 37.23046875 C43.85567081 42.81751842 49.42885494 48.40773634 55 54 C52 54 52 54 49.9510498 52.29162598 C49.16734009 51.49220581 48.38363037 50.69278564 47.57617188 49.86914062 C46.68514771 48.96820679 45.79412354 48.06727295 44.87609863 47.13903809 C44.40241348 46.65299606 43.92872833 46.16695404 43.44068909 45.66618347 C41.95961905 44.14688336 40.4694277 42.63710144 38.97644043 41.1295166 C35.2707061 37.383627 31.58140461 33.62168222 27.89141846 29.86029053 C24.77306016 26.68283331 21.64870178 23.51151532 18.51600647 20.34819031 C17.04573677 18.85842882 15.58476764 17.35993733 14.12390137 15.86096191 C13.2328772 14.96002808 12.34185303 14.05909424 11.42382812 13.13085938 C10.64011841 12.33143921 9.85640869 11.53201904 9.0489502 10.70837402 C7.06059404 8.67980654 7.06059404 8.67980654 4 9 C0 2.25 0 2.25 0 0 Z " fill="#EBE4B9" transform="translate(698,458)"/>
<path d="M0 0 C2.35968956 1.97443412 4.68409831 3.97529224 7 6 C7.56332031 6.46019531 8.12664063 6.92039062 8.70703125 7.39453125 C15.28463119 13.23272886 18.94167104 21.33426752 23 29 C18.88935257 29 16.52215589 26.93632401 13.25 24.6875 C12.59692871 24.24470703 11.94385742 23.80191406 11.27099609 23.34570312 C6.33448281 19.97373561 1.462156 16.51275255 -3.375 13 C-4.02307617 12.53166748 -4.67115234 12.06333496 -5.33886719 11.58081055 C-9.87910671 8.24178658 -9.87910671 8.24178658 -11 6 C-5.97202129 7.59137967 -2.28994151 10.62085454 1.8125 13.8125 C7.04246035 17.86134012 12.32358211 21.59831962 18 25 C13.69374496 16.57855243 9.03559696 10.56468628 2.16015625 4.1796875 C0 2 0 2 0 0 Z " fill="#F1E8BB" transform="translate(757,518)"/>
<path d="M0 0 C3.31613882 1.44580966 5.49185728 3.24829792 8.03417969 5.80712891 C9.20494049 6.9781163 9.20494049 6.9781163 10.39935303 8.17276001 C11.23178528 9.01551483 12.06421753 9.85826965 12.921875 10.7265625 C13.78186096 11.58937836 14.64184692 12.45219421 15.52789307 13.34115601 C18.2733231 16.09778029 21.0117169 18.86127799 23.75 21.625 C25.61021783 23.49524857 27.47088946 25.36504589 29.33203125 27.234375 C33.89330303 31.8176972 38.44827652 36.40719599 43 41 C44.65 38.03 46.3 35.06 48 32 C49 34 49 34 48.22265625 36.3828125 C47.64837891 37.74019531 47.64837891 37.74019531 47.0625 39.125 C46.49208984 40.49011719 46.49208984 40.49011719 45.91015625 41.8828125 C45.60980469 42.58148437 45.30945313 43.28015625 45 44 C41.78842164 42.58673312 39.65729672 40.8971743 37.19702148 38.40820312 C36.46623886 37.67404175 35.73545624 36.93988037 34.98252869 36.18347168 C34.20325516 35.39073853 33.42398163 34.59800537 32.62109375 33.78125 C31.8126149 32.96756958 31.00413605 32.15388916 30.17115784 31.31555176 C27.58848435 28.71506436 25.01258958 26.10799577 22.4375 23.5 C19.85798807 20.89287531 17.27703898 18.28721578 14.69313049 15.68444824 C13.08549345 14.0645511 11.48053708 12.44198832 9.87852478 10.81652832 C9.15089432 10.08236694 8.42326385 9.34820557 7.67358398 8.59179688 C7.03500961 7.94496948 6.39643524 7.29814209 5.73851013 6.63171387 C3.89248029 4.80918204 3.89248029 4.80918204 1 3 C0.67 2.01 0.34 1.02 0 0 Z " fill="#093359" transform="translate(768,516)"/>
<path d="M0 0 C5.2653222 4.14504088 9.34450332 8.67077313 13.515625 13.90625 C16.74653317 17.92964508 20.09613512 21.84589375 23.45800781 25.76000977 C26.89333973 29.78667946 26.89333973 29.78667946 28 32 C19.09 32 10.18 32 1 32 C1 31.34 1 30.68 1 30 C11.89 29.505 11.89 29.505 23 29 C20.3084375 25.8753125 20.3084375 25.8753125 17.5625 22.6875 C13.63561361 18.10908428 9.72597052 13.51752401 5.875 8.875 C5.17117188 8.02679687 4.46734375 7.17859375 3.7421875 6.3046875 C2.19279896 4.25504795 1.0450634 2.33792533 0 0 Z " fill="#F3E8B9" transform="translate(606,612)"/>
<path d="M0 0 C2.92929025 2.76190223 5.11113237 5.15701367 7.11645508 8.64746094 C8.62447349 10.77474232 9.42182952 11.8227295 11.93612671 12.59362793 C14.30487263 12.76036769 16.57824498 12.70964137 18.94921875 12.578125 C19.80304642 12.56110535 20.65687408 12.54408569 21.53657532 12.52655029 C24.2556479 12.46765465 26.97012332 12.36163017 29.6875 12.25 C32.41508294 12.15972879 35.14221541 12.07958317 37.87055969 12.01629639 C39.56605014 11.97476066 41.26122635 11.91636365 42.95549011 11.83966064 C45.2722168 11.77050781 45.2722168 11.77050781 49 12 C49.66 12.99 50.32 13.98 51 15 C45.32615407 15.27353515 39.65619964 15.47222515 33.97729492 15.60424805 C32.04953123 15.65930856 30.12222162 15.73418957 28.19604492 15.82983398 C11.34426022 16.6451726 11.34426022 16.6451726 6.71044922 12.64306641 C3.43740211 8.74355535 0.91673012 5.07026328 0 0 Z " fill="#F9ECB8" transform="translate(740,888)"/>
<path d="M0 0 C5.25693193 4.291373 9.63408439 8.82010013 14 14 C15.9547488 16.29473624 17.9147925 18.58492633 19.875 20.875 C20.65423828 21.7872937 20.65423828 21.7872937 21.44921875 22.71801758 C25.16916309 27.06279632 28.97786942 31.31623162 32.8359375 35.5390625 C36.03781394 39.18018552 38.9994881 43.00662115 41.95703125 46.84765625 C44.04861563 49.05121838 45.03269244 49.67326276 48 50 C47.67 50.99 47.34 51.98 47 53 C43.18371168 51.45427224 41.02974257 49.11228755 38.3125 46.0625 C37.87679687 45.57523438 37.44109375 45.08796875 36.9921875 44.5859375 C33.29430615 40.41644229 29.78975919 36.09738726 26.2890625 31.76171875 C23.0989845 27.91293863 19.72967134 24.24246696 16.34765625 20.5625 C13.74292926 17.71940365 11.19592693 14.83264777 8.671875 11.91796875 C7.46582812 10.53439627 6.24520376 9.1634837 5.015625 7.80078125 C4.37109375 7.08277344 3.7265625 6.36476563 3.0625 5.625 C2.18271484 4.65433594 2.18271484 4.65433594 1.28515625 3.6640625 C0 2 0 2 0 0 Z " fill="#101B3E" transform="translate(401,638)"/>
<path d="M0 0 C3.33531764 3.09400146 5.7257232 6.39357145 8.1953125 10.20703125 C8.77968834 11.10452087 8.77968834 11.10452087 9.37586975 12.0201416 C10.6299952 13.94810104 11.87747173 15.88026676 13.125 17.8125 C13.98162313 19.13146388 14.83880175 20.45006715 15.6965332 21.76831055 C16.96625633 23.71980685 18.23569421 25.67147868 19.50331116 27.62434387 C22.69690604 32.54356001 25.92445165 37.43902745 29.1875 42.3125 C29.59049316 42.91489502 29.99348633 43.51729004 30.40869141 44.13793945 C31.27135254 45.42603597 32.13544735 46.71317228 33 48 C32.505 48.99 32.505 48.99 32 50 C29.69 49.34 27.38 48.68 25 48 C26.32 47.34 27.64 46.68 29 46 C28.11915314 44.67872971 27.23825267 43.35749516 26.35717773 42.03637695 C25.51740055 40.7762952 24.67840224 39.5156941 23.84008789 38.25463867 C21.10252895 34.14007584 18.3512719 30.03522252 15.58404541 25.9405365 C13.94356907 23.51129705 12.30783619 21.07888166 10.67254639 18.64614868 C9.85027134 17.42533336 9.02593362 16.20590477 8.19952393 14.98788452 C7.02217583 13.25198567 5.8522032 11.51132072 4.68359375 9.76953125 C3.99837646 8.75479736 3.31315918 7.74006348 2.60717773 6.69458008 C1.21299597 4.35710717 0.43702571 2.65577162 0 0 Z " fill="#111A3E" transform="translate(672,552)"/>
<path d="M0 0 C4.59363331 1.57666551 8.26616984 4.02818923 12.234375 6.75390625 C12.91300598 7.21482162 13.59163696 7.675737 14.29083252 8.15061951 C16.44694543 9.61681416 18.59840546 11.08968517 20.75 12.5625 C22.21195906 13.5570531 23.67419577 14.55119822 25.13671875 15.54492188 C26.52368538 16.48921936 27.91041267 17.43386848 29.296875 18.37890625 C29.9541156 18.82682022 30.6113562 19.27473419 31.28851318 19.73622131 C35.8812952 22.8812952 35.8812952 22.8812952 37 24 C39.32817964 24.36760731 41.6618385 24.70241581 44 25 C44.495 27.97 44.495 27.97 45 31 C38.95303647 27.96052098 33.48128183 24.28702877 28.02807617 20.30517578 C21.44813103 15.53137004 14.65365785 11.08563245 7.84472656 6.64672852 C6.97170898 6.07237061 6.09869141 5.4980127 5.19921875 4.90625 C4.41377686 4.39384766 3.62833496 3.88144531 2.8190918 3.35351562 C1 2 1 2 0 0 Z " fill="#F1CA07" transform="translate(616,439)"/>
<path d="M0 0 C0.33 0.66 0.66 1.32 1 2 C0.34 3.65 -0.32 5.3 -1 7 C10.55 7 22.1 7 34 7 C34.495 7.99 34.495 7.99 35 9 C22.79 9 10.58 9 -2 9 C-3 6 -3 6 -1.5625 2.8125 C-1.046875 1.884375 -0.53125 0.95625 0 0 Z " fill="#031C44" transform="translate(505,896)"/>
<path d="M0 0 C13.2 0 26.4 0 40 0 C37 3 37 3 33.26293945 3.2487793 C31.71254091 3.20638942 30.16254466 3.14712561 28.61328125 3.07421875 C27.79627243 3.04777786 26.97926361 3.02133698 26.13749695 2.99409485 C23.52842093 2.90633415 20.92073733 2.79718662 18.3125 2.6875 C16.54366966 2.62424082 14.77478891 2.56237477 13.00585938 2.50195312 C8.66982246 2.35079406 4.33491273 2.18045018 0 2 C0 1.34 0 0.68 0 0 Z " fill="#F8E9B6" transform="translate(745,773)"/>
<path d="M0 0 C7.61282966 1.28546842 15.76964938 3.70054761 20.57421875 10.09521484 C23.45951781 14.81863505 25.81814517 19.77841879 28.03662109 24.84423828 C28.89034241 26.75461821 29.85395292 28.6150453 30.83203125 30.46484375 C31.21746094 31.30144531 31.60289062 32.13804687 32 33 C31.67 33.66 31.34 34.32 31 35 C29.99126984 33.73608512 28.99328178 32.46359117 28 31.1875 C27.443125 30.47980469 26.88625 29.77210938 26.3125 29.04296875 C25 27 25 27 25 24 C22.51392211 17.03243961 19.75299943 10.11856965 12.94140625 6.52734375 C10.11677874 5.2543614 7.24631852 4.20228938 4.31640625 3.19921875 C1 2 1 2 0 0 Z " fill="#F6EDBE" transform="translate(496,456)"/>
<path d="M0 0 C0.33 0.99 0.66 1.98 1 3 C2.32 2.67 3.64 2.34 5 2 C-4.14189189 11.69594595 -4.14189189 11.69594595 -9.9375 12.3125 C-10.9584375 12.1578125 -10.9584375 12.1578125 -12 12 C-8.32167983 7.47384007 -4.58913637 3.60575001 0 0 Z " fill="#0C1E42" transform="translate(430,724)"/>
<path d="M0 0 C0 0.33 0 0.66 0 1 C-13.6332574 3.29612756 -13.6332574 3.29612756 -20 3 C-15.80898673 8.46815636 -11.52923792 13.80794678 -7 19 C-7.33 19.66 -7.66 20.32 -8 21 C-23 4.63106796 -23 4.63106796 -23 2 C-15.26940505 0.64290496 -7.85546636 -0.31918373 0 0 Z " fill="#F0E9BC" transform="translate(296,532)"/>
<path d="M0 0 C2.04064633 1.98097831 3.85107316 4.02999799 5.625 6.25 C9.23839112 10.51217955 13.52844887 13.68956988 18 17 C22.88135593 20.76271186 22.88135593 20.76271186 24 23 C24.04022391 25.3329866 24.04320247 27.66706666 24 30 C22.91462445 27.90677573 22.01438227 26.05939152 21.45703125 23.7578125 C18.82557227 18.77708853 13.73440056 16.09274363 9.20898438 12.90429688 C4.81989962 9.7098295 1.88291797 7.29808903 0 2 C0 1.34 0 0.68 0 0 Z " fill="#0F183C" transform="translate(697,534)"/>
<path d="M0 0 C4.95 0 9.9 0 15 0 C15 0.33 15 0.66 15 1 C11.7 1.66 8.4 2.32 5 3 C9.62 7.62 14.24 12.24 19 17 C18.67 17.66 18.34 18.32 18 19 C14.99599642 16.02484693 11.99747845 13.04422593 9 10.0625 C8.14148438 9.21236328 7.28296875 8.36222656 6.3984375 7.48632812 C5.58632813 6.67744141 4.77421875 5.86855469 3.9375 5.03515625 C3.18339844 4.2862915 2.42929687 3.53742676 1.65234375 2.76586914 C0 1 0 1 0 0 Z " fill="#F6EEBD" transform="translate(546,660)"/>
<path d="M0 0 C0.66 0.33 1.32 0.66 2 1 C1.34 2.65 0.68 4.3 0 6 C0.66 6.33 1.32 6.66 2 7 C2 7.66 2 8.32 2 9 C4.31 9.33 6.62 9.66 9 10 C5.12813552 11.44715727 2.1767672 10.5441918 -1.75 9.5625 C-2.92046875 9.27503906 -4.0909375 8.98757813 -5.296875 8.69140625 C-6.18890625 8.46324219 -7.0809375 8.23507812 -8 8 C-8 7.34 -8 6.68 -8 6 C-6.25 4.4921875 -6.25 4.4921875 -4 2.875 C-3.2575 2.33617187 -2.515 1.79734375 -1.75 1.2421875 C-1.1725 0.83226562 -0.595 0.42234375 0 0 Z " fill="#162444" transform="translate(454,595)"/>
<path d="M0 0 C7.48843493 5.6163262 13.02915669 13.12949808 18 21 C16.58376784 21.05447047 15.16691809 21.09300508 13.75 21.125 C12.56664062 21.15980469 12.56664062 21.15980469 11.359375 21.1953125 C9 21 9 21 5 19 C7.97 19 10.94 19 14 19 C12.60452243 17.29137605 11.2085998 15.58311558 9.8125 13.875 C8.99523437 12.87339844 8.17796875 11.87179687 7.3359375 10.83984375 C5.56066256 8.68160817 3.76278025 6.55292595 1.9375 4.4375 C0 2 0 2 0 0 Z " fill="#F1E9BC" transform="translate(623,565)"/>
<path d="M0 0 C7.06095454 5.70885686 15.02984294 12.18381951 18 21 C15.45187089 18.45187089 12.92464887 15.91711376 10.5 13.25 C7.91800326 10.54142566 7.91800326 10.54142566 3 10 C2.01 6.7 1.02 3.4 0 0 Z " fill="#EFE6B9" transform="translate(513,379)"/>
<path d="M0 0 C3.63559661 3.43361902 6.36113346 6.7973607 9 11 C8.67 7.37 8.34 3.74 8 0 C10.62587906 2.62587906 10.85778351 4.77281623 11.6875 8.375 C11.95949219 9.51710938 12.23148438 10.65921875 12.51171875 11.8359375 C12.97310052 14.82569135 12.82553078 16.19555077 12 19 C10.36842369 16.77539687 8.74470115 14.54572432 7.125 12.3125 C6.43470703 11.37374023 6.43470703 11.37374023 5.73046875 10.41601562 C3.30080872 7.05322529 1.32366838 3.97861244 0 0 Z " fill="#EBE4BA" transform="translate(563,483)"/>
<path d="M0 0 C0.33 0.66 0.66 1.32 1 2 C-1.64 4.31 -4.28 6.62 -7 9 C-7.66 8.67 -8.32 8.34 -9 8 C-8.01 7.01 -7.02 6.02 -6 5 C-9.72614153 6.11854586 -9.72614153 6.11854586 -12 9 C-12.99 9 -13.98 9 -15 9 C-15 8.34 -15 7.68 -15 7 C-15.99 6.67 -16.98 6.34 -18 6 C-12.07433507 3.69557475 -6.10737442 1.76463072 0 0 Z " fill="#EDE3B7" transform="translate(428,724)"/>
<path d="M0 0 C2.96865509 2.54456151 4.3619751 5.48994665 6 9 C6.33 6.36 6.66 3.72 7 1 C9.93447357 3.93447357 9.46158423 7.18259456 9.625 11.125 C9.66367187 11.87910156 9.70234375 12.63320313 9.7421875 13.41015625 C9.83651031 15.27303184 9.91934662 17.13648255 10 19 C6.73431212 16.27691872 5.13812687 12.68403698 3.3125 8.9375 C2.99216797 8.30005859 2.67183594 7.66261719 2.34179688 7.00585938 C0 2.26734075 0 2.26734075 0 0 Z " fill="#EFE6BC" transform="translate(553,482)"/>
<path d="M0 0 C2.46060345 3.02843502 4.87203778 6.09389512 7.25 9.1875 C7.77078125 9.86167969 8.2915625 10.53585937 8.828125 11.23046875 C10 13 10 13 10 15 C7 16 7 16 4 15 C2.83203125 12.3828125 2.83203125 12.3828125 1.8125 9.125 C1.46832031 8.05507813 1.12414062 6.98515625 0.76953125 5.8828125 C0 3 0 3 0 0 Z " fill="#132647" transform="translate(569,472)"/>
<path d="M0 0 C0.99386719 0.02707031 1.98773438 0.05414062 3.01171875 0.08203125 C4.15060547 0.13423828 4.15060547 0.13423828 5.3125 0.1875 C2.72069338 3.16045465 0.98529621 4.97220521 -2.8125 6.1875 C-5.6875 6.1875 -5.6875 6.1875 -7.5625 4.75 C-8.119375 3.9765625 -8.119375 3.9765625 -8.6875 3.1875 C-6.10291354 -0.17334451 -4.11082043 -0.14508778 0 0 Z " fill="#EFD7AD" transform="translate(333.6875,688.8125)"/>
<path d="M0 0 C3.85550018 3.63635985 6.86741138 7.41691848 9.8125 11.8125 C10.21919922 12.40998047 10.62589844 13.00746094 11.04492188 13.62304688 C12.03479703 15.07874564 13.01809735 16.53891174 14 18 C13.67 18.66 13.34 19.32 13 20 C12.52949219 19.28972656 12.05898438 18.57945312 11.57421875 17.84765625 C10.64029297 16.46900391 10.64029297 16.46900391 9.6875 15.0625 C9.07261719 14.14597656 8.45773437 13.22945313 7.82421875 12.28515625 C6.1335096 9.74221053 6.1335096 9.74221053 3 9 C3 8.34 3 7.68 3 7 C2.34 7 1.68 7 1 7 C0.67 4.69 0.34 2.38 0 0 Z " fill="#0D193C" transform="translate(561,483)"/>
<path d="M0 0 C0.33 0 0.66 0 1 0 C1.66 4.62 2.32 9.24 3 14 C-2 9 -2 9 -3 6 C-2.67 5.01 -2.34 4.02 -2 3 C-1.34 3 -0.68 3 0 3 C0 2.01 0 1.02 0 0 Z " fill="#E2D5AF" transform="translate(585,483)"/>
<path d="M0 0 C-1.65 0.33 -3.3 0.66 -5 1 C-5 1.66 -5 2.32 -5 3 C-4.34 3.226875 -3.68 3.45375 -3 3.6875 C0.92734533 5.40571358 4.41260178 7.66774607 8 10 C7.01 10.495 7.01 10.495 6 11 C3.38211357 9.59104764 0.88954328 8.13756909 -1.625 6.5625 C-2.33140625 6.12873047 -3.0378125 5.69496094 -3.765625 5.24804688 C-5.51483568 4.17251868 -7.25799654 3.08716275 -9 2 C-5.945634 -1.054366 -3.9532319 -1.22686507 0 0 Z " fill="#0F193D" transform="translate(383,541)"/>
<path d="M0 0 C5.82665994 3.80351413 11.48221873 7.76017897 17 12 C13.60406522 12 12.93380119 11.47834052 10.3125 9.5 C9.68988281 9.0359375 9.06726563 8.571875 8.42578125 8.09375 C7.72001953 7.55234375 7.72001953 7.55234375 7 7 C6.34 7.66 5.68 8.32 5 9 C4.16094435 7.87926138 3.32892169 6.75325453 2.5 5.625 C2.0359375 4.99851562 1.571875 4.37203125 1.09375 3.7265625 C0 2 0 2 0 0 Z " fill="#101A3B" transform="translate(746,525)"/>
<path d="M0 0 C0.680625 0.309375 1.36125 0.61875 2.0625 0.9375 C5.36476328 2.13193566 8.52891989 2.53273922 12 3 C13 4 13 4 13.0625 6.5625 C13.041875 7.366875 13.02125 8.17125 13 9 C3.40546697 3.9977221 3.40546697 3.9977221 0 0 Z " fill="#EDE2B8" transform="translate(450,526)"/>
<path d="M0 0 C2 1 4 2 6 3 C6 3.66 6 4.32 6 5 C1.05 5 -3.9 5 -9 5 C-5.99382731 1.99382731 -3.17618402 2.40414684 1 2 C0.67 1.34 0.34 0.68 0 0 Z " fill="#101D40" transform="translate(555,655)"/>
<path d="M0 0 C3.26309597 2.72931793 4.90051326 6.32166572 6.75 10.0625 C7.07871094 10.69994141 7.40742187 11.33738281 7.74609375 11.99414062 C8.56378581 13.63124982 9.28949826 15.31360322 10 17 C9.67 17.66 9.34 18.32 9 19 C7.99126984 17.73608512 6.99328178 16.46359117 6 15.1875 C5.443125 14.47980469 4.88625 13.77210938 4.3125 13.04296875 C3 11 3 11 3 8 C2.01642648 5.99187074 1.01691264 3.99145391 0 2 C0 1.34 0 0.68 0 0 Z " fill="#ECE6BC" transform="translate(518,472)"/>
<path d="M0 0 C1.32 0.66 2.64 1.32 4 2 C3.34 3.65 2.68 5.3 2 7 C3.32 8.32 4.64 9.64 6 11 C1.56541027 9.6062718 -0.87378374 7.39417765 -4 4 C-3.01 4 -2.02 4 -1 4 C-0.67 2.68 -0.34 1.36 0 0 Z " fill="#0E2345" transform="translate(606,436)"/>
<path d="M0 0 C1.32 0.33 2.64 0.66 4 1 C0.6189962 5.13621084 -2.66590534 8.81316569 -7 12 C-7.66 11.67 -8.32 11.34 -9 11 C-6.03 7.37 -3.06 3.74 0 0 Z " fill="#0F2353" transform="translate(355,487)"/>
<path d="M0 0 C0.33 0.99 0.66 1.98 1 3 C3.64 2.34 6.28 1.68 9 1 C7.48400735 4.0319853 5.1403567 4.41024437 2.0625 5.6875 C0.98097656 6.14511719 -0.10054688 6.60273437 -1.21484375 7.07421875 C-4 8 -4 8 -6 7 C-4.02 4.69 -2.04 2.38 0 0 Z " fill="#131C3C" transform="translate(325,663)"/>
<path d="M0 0 C2.97 0.495 2.97 0.495 6 1 C6 2.65 6 4.3 6 6 C6.66 6 7.32 6 8 6 C9.38232443 7.62626404 10.71937515 9.2925002 12 11 C11.67 11.66 11.34 12.32 11 13 C9.16365966 11.02354928 7.33083938 9.044035 5.5 7.0625 C4.71302734 6.21655273 4.71302734 6.21655273 3.91015625 5.35351562 C0 1.11328125 0 1.11328125 0 0 Z " fill="#F5ECBF" transform="translate(416,431)"/>
<path d="M0 0 C0.33 0.99 0.66 1.98 1 3 C-3.41225737 4.47075246 -6.48281619 5.36884358 -11 4 C-7.31265242 1.54176828 -4.30300029 0.98757384 0 0 Z " fill="#ED8E1F" transform="translate(333,511)"/>
<path d="M0 0 C2.25365722 2.09823258 3.98067998 3.96754236 5.5625 6.625 C6.92617739 9.25743604 6.92617739 9.25743604 10 11 C10.1875 13.625 10.1875 13.625 10 16 C0 4.07692308 0 4.07692308 0 0 Z " fill="#0F1C3F" transform="translate(753,535)"/>
<path d="M0 0 C0.99 0.33 1.98 0.66 3 1 C2.62875 1.5775 2.2575 2.155 1.875 2.75 C1.58625 3.4925 1.2975 4.235 1 5 C1.66 6.32 2.32 7.64 3 9 C0.69 7.02 -1.62 5.04 -4 3 C-2.1875 1.4375 -2.1875 1.4375 0 0 Z " fill="#EEE1B5" transform="translate(295,667)"/>
<path d="M0 0 C1.91385532 2.87078299 2.96432952 5.33411656 4.125 8.5625 C4.47820313 9.53316406 4.83140625 10.50382812 5.1953125 11.50390625 C6 14 6 14 6 16 C5.01 15.67 4.02 15.34 3 15 C2.05078125 12.890625 2.05078125 12.890625 1.3125 10.25 C1.06113281 9.38890625 0.80976562 8.5278125 0.55078125 7.640625 C0.00246572 5.01182147 -0.10108994 2.67647662 0 0 Z " fill="#DFD8B2" transform="translate(514,423)"/>
<path d="M0 0 C1.48199902 0.44909061 2.96055236 0.90956564 4.4375 1.375 C5.26121094 1.63023437 6.08492187 1.88546875 6.93359375 2.1484375 C9 3 9 3 10 5 C7.69 4.67 5.38 4.34 3 4 C2.34 4.99 1.68 5.98 1 7 C0.67 4.69 0.34 2.38 0 0 Z " fill="#182241" transform="translate(508,434)"/>
<path d="M0 0 C-1.33333333 0.66666667 -2.66666667 1.33333333 -4 2 C-4.680625 2.391875 -5.36125 2.78375 -6.0625 3.1875 C-8 4 -8 4 -11 3 C-11 2.34 -11 1.68 -11 1 C-6.92630576 -1.03684712 -4.41062136 -1.0257259 0 0 Z " fill="#152646" transform="translate(440,520)"/>
<path d="M0 0 C1.54571278 2.31856917 2.79618552 4.50638429 4 7 C4.99 6.01 5.98 5.02 7 4 C7.66 4.33 8.32 4.66 9 5 C6.69 6.98 4.38 8.96 2 11 C0.57741188 7.17679443 -0.24042276 4.08718695 0 0 Z " fill="#F8F0C1" transform="translate(537,471)"/>
<path d="M0 0 C3.80635497 3.20760251 7.54563567 6.40746109 11 10 C10.67 10.66 10.34 11.32 10 12 C6.32901505 10.06790266 4.65406588 8.78072201 3 5 C2.46375 4.46375 1.9275 3.9275 1.375 3.375 C0.92125 2.92125 0.4675 2.4675 0 2 C0 1.34 0 0.68 0 0 Z " fill="#F71F16" transform="translate(740,213)"/>
<path d="M0 0 C0.99773437 0.02320313 1.99546875 0.04640625 3.0234375 0.0703125 C4.52777344 0.09738281 4.52777344 0.09738281 6.0625 0.125 C6.83335937 0.14820313 7.60421875 0.17140625 8.3984375 0.1953125 C7.22265625 1.71484375 7.22265625 1.71484375 5.3984375 3.1953125 C2.91796875 3.26953125 2.91796875 3.26953125 0.2109375 2.8828125 C-1.14064453 2.70298828 -1.14064453 2.70298828 -2.51953125 2.51953125 C-3.55013672 2.35904297 -3.55013672 2.35904297 -4.6015625 2.1953125 C-2.6015625 0.1953125 -2.6015625 0.1953125 0 0 Z " fill="#D3D1AE" transform="translate(330.6015625,688.8046875)"/>
<path d="M0 0 C0.99 0.33 1.98 0.66 3 1 C3 1.99 3 2.98 3 4 C2.34 4 1.68 4 1 4 C1 5.98 1 7.96 1 10 C0.01 10.33 -0.98 10.66 -2 11 C-1.34 7.37 -0.68 3.74 0 0 Z " fill="#E1D5AD" transform="translate(592,528)"/>
<path d="M0 0 C1.32 1.32 2.64 2.64 4 4 C2.58376784 4.05447047 1.16691809 4.09300508 -0.25 4.125 C-1.03890625 4.14820313 -1.8278125 4.17140625 -2.640625 4.1953125 C-5 4 -5 4 -9 2 C-6.03 2 -3.06 2 0 2 C0 1.34 0 0.68 0 0 Z " fill="#FCF0BE" transform="translate(637,582)"/>
<path d="M0 0 C4.2742558 1.5830577 6.26531794 4.50568404 9 8 C6 8 6 8 4.39453125 6.7578125 C3.87246094 6.21898437 3.35039063 5.68015625 2.8125 5.125 C2.28269531 4.59132813 1.75289062 4.05765625 1.20703125 3.5078125 C0 2 0 2 0 0 Z " fill="#28314D" transform="translate(757,516)"/>
<path d="M0 0 C3.59634744 3.49359465 6.83451967 7.11098131 10 11 C9.01 11 8.02 11 7 11 C2 5.65116279 2 5.65116279 2 3 C1.34 3 0.68 3 0 3 C0 2.01 0 1.02 0 0 Z " fill="#18223F" transform="translate(513,475)"/>
<path d="M0 0 C0 3.23830467 -0.29194726 4.31591712 -2 7 C-4.625 9.25 -4.625 9.25 -7 11 C-7.66 10.67 -8.32 10.34 -9 10 C-6.03 6.7 -3.06 3.4 0 0 Z " fill="#0B1D57" transform="translate(370,470)"/>
<path d="M0 0 C0 0.66 0 1.32 0 2 C-1.65 2.33 -3.3 2.66 -5 3 C-5 3.66 -5 4.32 -5 5 C-7.31 4.67 -9.62 4.34 -12 4 C-12 3.67 -12 3.34 -12 3 C-10.37604003 2.49663233 -8.75079459 1.99741024 -7.125 1.5 C-6.22007812 1.2215625 -5.31515625 0.943125 -4.3828125 0.65625 C-2 0 -2 0 0 0 Z " fill="#DED4AB" transform="translate(315,830)"/>
<path d="M0 0 C0.53625 0.28875 1.0725 0.5775 1.625 0.875 C4.35280484 2.16711808 7.12612718 3.08558592 10 4 C9.67 4.99 9.34 5.98 9 7 C5.88626628 5.50079488 2.87771795 3.91847864 0 2 C0 1.34 0 0.68 0 0 Z " fill="#E59E19" transform="translate(661,469)"/>
<path d="M0 0 C4.82758621 2.4137931 4.82758621 2.4137931 7 5 C7.33 5.99 7.66 6.98 8 8 C7.01 8.33 6.02 8.66 5 9 C3.35 6.03 1.7 3.06 0 0 Z " fill="#DFD4B2" transform="translate(600,440)"/>
<path d="M0 0 C1.98 1.65 3.96 3.3 6 5 C5.01 5.495 5.01 5.495 4 6 C3.67 7.32 3.34 8.64 3 10 C2.01 6.7 1.02 3.4 0 0 Z " fill="#ECE4BA" transform="translate(430,464)"/>
<path d="M0 0 C0.66 0 1.32 0 2 0 C2 1.32 2 2.64 2 4 C0.68 4 -0.64 4 -2 4 C-2.66 5.32 -3.32 6.64 -4 8 C-4.66 7.67 -5.32 7.34 -6 7 C-5.04882866 5.8274869 -4.08882991 4.66212985 -3.125 3.5 C-2.59132813 2.8503125 -2.05765625 2.200625 -1.5078125 1.53125 C-0.76144531 0.77328125 -0.76144531 0.77328125 0 0 Z " fill="#101E57" transform="translate(413,418)"/>
<path d="M0 0 C1.8125 0.125 1.8125 0.125 4 1 C5.8125 3.9375 5.8125 3.9375 7 7 C6.67 7.66 6.34 8.32 6 9 C4.99406757 7.8803014 3.9954151 6.7540588 3 5.625 C2.443125 4.99851562 1.88625 4.37203125 1.3125 3.7265625 C0 2 0 2 0 0 Z " fill="#1C203C" transform="translate(757,617)"/>
<path d="M0 0 C2.31 0 4.62 0 7 0 C6.34 1.65 5.68 3.3 5 5 C3.35 3.35 1.7 1.7 0 0 Z " fill="#25354F" transform="translate(604,609)"/>
<path d="M0 0 C0.99 0.33 1.98 0.66 3 1 C4.85026394 5.71817304 5.19884975 9.08471601 4 14 C3.67 14 3.34 14 3 14 C2.92652344 12.98679687 2.92652344 12.98679687 2.8515625 11.953125 C2.77679688 11.06109375 2.70203125 10.1690625 2.625 9.25 C2.55539062 8.36828125 2.48578125 7.4865625 2.4140625 6.578125 C2.00149945 4.00933618 1.28839043 2.24158985 0 0 Z " fill="#D9D0AA" transform="translate(463,483)"/>
<path d="M0 0 C2.25245881 2.68841859 3.88213958 4.64641875 5 8 C4.01 9.485 4.01 9.485 3 11 C2.49384702 9.73160474 1.99530901 8.46016898 1.5 7.1875 C1.2215625 6.47980469 0.943125 5.77210938 0.65625 5.04296875 C0 3 0 3 0 0 Z " fill="#181F3C" transform="translate(569,472)"/>
<path d="M0 0 C0.99 0.495 0.99 0.495 2 1 C2 1.66 2 2.32 2 3 C2.8971875 3.37125 2.8971875 3.37125 3.8125 3.75 C6.28647521 5.16370012 7.43370255 6.65055383 9 9 C6.66471585 8.82701599 5.30822418 8.29774631 3.62109375 6.66796875 C0 2.42788462 0 2.42788462 0 0 Z " fill="#272B52" transform="translate(697,445)"/>
<path d="M0 0 C0.66 0.33 1.32 0.66 2 1 C1.2575 1.6496875 1.2575 1.6496875 0.5 2.3125 C-1.33218192 3.99740483 -1.33218192 3.99740483 -1 7 C-2.65 7 -4.3 7 -6 7 C-4.02 4.69 -2.04 2.38 0 0 Z " fill="#081239" transform="translate(424,729)"/>
<path d="M0 0 C0.66 0 1.32 0 2 0 C2 0.66 2 1.32 2 2 C2.66 2 3.32 2 4 2 C4 2.66 4 3.32 4 4 C5.32 4.33 6.64 4.66 8 5 C7.67 5.99 7.34 6.98 7 8 C5 6.625 5 6.625 3 5 C3 4.34 3 3.68 3 3 C2.34 3 1.68 3 1 3 C0.67 2.01 0.34 1.02 0 0 Z " fill="#E0D6AE" transform="translate(702,618)"/>
<path d="M0 0 C0.66 0 1.32 0 2 0 C2.99 2.64 3.98 5.28 5 8 C4.01 8.33 3.02 8.66 2 9 C1.01 8.34 0.02 7.68 -1 7 C-0.01 6.67 0.98 6.34 2 6 C1.34 4.02 0.68 2.04 0 0 Z " fill="#E5D9AD" transform="translate(375,563)"/>
<path d="M0 0 C4.75 1.875 4.75 1.875 7 3 C6.67 3.66 6.34 4.32 6 5 C4.68 4.34 3.36 3.68 2 3 C1.67 4.32 1.34 5.64 1 7 C0.67 4.69 0.34 2.38 0 0 Z " fill="#F2EBBE" transform="translate(583,533)"/>
<path d="M0 0 C0.33 1.32 0.66 2.64 1 4 C0.34 4 -0.32 4 -1 4 C-0.67 2.68 -0.34 1.36 0 0 Z M-6 1 C-5.01 1.495 -5.01 1.495 -4 2 C-4 2.66 -4 3.32 -4 4 C-3.01 4 -2.02 4 -1 4 C-1 4.99 -1 5.98 -1 7 C-2.9375 6.25 -2.9375 6.25 -5 5 C-5.75 2.875 -5.75 2.875 -6 1 Z " fill="#F4E7B9" transform="translate(584,482)"/>
<path d="M0 0 C1 3 1 3 -0.4375 6.1875 C-1.2109375 7.5796875 -1.2109375 7.5796875 -2 9 C-2.99 8.34 -3.98 7.68 -5 7 C-4.54625 6.401875 -4.0925 5.80375 -3.625 5.1875 C-2.36704087 3.49409348 -1.17015276 1.75522914 0 0 Z " fill="#243550" transform="translate(427,726)"/>
<path d="M0 0 C1.13643966 3.40931897 0.86747764 4.00335456 -0.4375 7.1875 C-0.86869141 8.26064453 -0.86869141 8.26064453 -1.30859375 9.35546875 C-1.53675781 9.89816406 -1.76492188 10.44085937 -2 11 C-2.33 11 -2.66 11 -3 11 C-3.32613618 6.32538149 -2.70582788 3.83325617 0 0 Z " fill="#F52014" transform="translate(820,531)"/>
<path d="M0 0 C1.4606285 2.64738916 2 3.89448334 2 7 C-3.75 5.25 -3.75 5.25 -6 3 C-3.525 3.495 -3.525 3.495 -1 4 C-0.67 2.68 -0.34 1.36 0 0 Z " fill="#F6EEC0" transform="translate(507,435)"/>
<path d="M0 0 C0 0.99 0 1.98 0 3 C-2.5 5.1875 -2.5 5.1875 -5 7 C-5.66 6.67 -6.32 6.34 -7 6 C-4.69 4.02 -2.38 2.04 0 0 Z " fill="#E4221B" transform="translate(292,206)"/>
<path d="M0 0 C0 0.99 0 1.98 0 3 C-3.07322544 3.91058531 -5.80097361 4.08886184 -9 4 C-6.01353231 2.00902154 -3.40312738 1.05875074 0 0 Z " fill="#ECE3B8" transform="translate(339,663)"/>
<path d="M0 0 C2.97 0.33 5.94 0.66 9 1 C5.5647952 3.29013653 4.014669 3.17842973 0 3 C0 2.01 0 1.02 0 0 Z " fill="#EBE6BF" transform="translate(503,618)"/>
<path d="M0 0 C0.33 0.66 0.66 1.32 1 2 C3.64 2 6.28 2 9 2 C7.3125 3.5625 7.3125 3.5625 5 5 C2.25 4.6875 2.25 4.6875 0 4 C0 2.68 0 1.36 0 0 Z " fill="#E4CFA8" transform="translate(346,573)"/>
</svg>
